<?xml version="1.0" encoding="UTF-8"?><svg id="uuid-bce0205d-8720-46f8-9835-2442257b9508" xmlns="http://www.w3.org/2000/svg" width="1114" height="1112" viewBox="0 0 1114 1112"><defs><style>.uuid-957e0bb5-c7eb-4244-8729-603c1f75afaf{fill:#c2d8df;}.uuid-957e0bb5-c7eb-4244-8729-603c1f75afaf,.uuid-404e66b6-3204-4245-9d08-8eafd581b454,.uuid-0337752c-ae2d-44ae-83c2-69a1497650be{stroke-width:0px;}.uuid-404e66b6-3204-4245-9d08-8eafd581b454{fill:#6697aa;}.uuid-0337752c-ae2d-44ae-83c2-69a1497650be{fill:#dfebed;}</style></defs><path class="uuid-957e0bb5-c7eb-4244-8729-603c1f75afaf" d="m620.54,957.38l-520.13,41.46c-3.55-3.03-7.11-6.06-10.66-9.09L43.88,410.92c2.71-8.97,5.41-17.94,8.12-26.92-3.67-3-7.33-6-11-9-1.65-20.5-3.29-41-4.94-61.5,1.98-4.17,3.96-8.34,5.94-12.5-2.97-8.21-5.95-16.42-8.92-24.63-5.11-63.36-10.23-126.73-15.34-190.09-.05-.66-.27-4.16,2.34-7.21,1.64-1.93,4.02-3.23,6.75-3.45l520.13-41.46c5.45-.43,10.23,3.63,10.66,9.09l72.02,903.48-9.09,10.66Z"/><path class="uuid-404e66b6-3204-4245-9d08-8eafd581b454" d="m43,301c74-3.67,148-7.33,222-11-77-4.67-154-9.33-231-14,3,8.33,6,16.67,9,25Z"/><path class="uuid-404e66b6-3204-4245-9d08-8eafd581b454" d="m54,384c98.72-4.47,148.05-7.47,148-9-.05-1.59-53.39-1.59-160,0l12,9Z"/><rect class="uuid-404e66b6-3204-4245-9d08-8eafd581b454" x="526.06" y="155.81" width="535.21" height="852.8" rx="9.91" ry="9.91" transform="translate(68.36 -83.23) rotate(6.27)"/><path class="uuid-0337752c-ae2d-44ae-83c2-69a1497650be" d="m950.09,1111.99c-190.7-7.69-381.4-15.39-572.09-23.08-110.8,13.67-193.39,23.38-197.09,23.08-4.94-.4-7-2.79-7-2.79,0,0,0,0,0,0-1.79-1.72-2.9-4.11-2.9-6.74V18.53c0-5.26,4.43-9.53,9.91-9.53h769.19c3.3,3.18,6.6,6.35,9.91,9.53,1.67,359.04,3.33,718.08,5,1077.12-4.97,5.45-9.94,10.9-14.91,16.35Z"/></svg>