<?xml version="1.0" encoding="UTF-8"?><svg id="uuid-48e802ca-a01e-4436-bf1e-baa171fd710b" xmlns="http://www.w3.org/2000/svg" width="1114" height="2848" viewBox="0 0 1114 2848"><defs><style>.uuid-ffd7dc22-5311-4ed1-9c70-b036cbfc030e{fill:#c2d8df;}.uuid-ffd7dc22-5311-4ed1-9c70-b036cbfc030e,.uuid-2e566b24-cfba-470c-8973-854bf35db26f,.uuid-13dfb0d4-991a-49b0-96b2-51d32486a381{stroke-width:0px;}.uuid-2e566b24-cfba-470c-8973-854bf35db26f{fill:#6697aa;}.uuid-13dfb0d4-991a-49b0-96b2-51d32486a381{fill:#dfebed;}</style></defs><rect class="uuid-2e566b24-cfba-470c-8973-854bf35db26f" x="49.39" y="1243.31" width="705.82" height="1071.77" rx="9.91" ry="9.91" transform="translate(-83.53 20.97) rotate(-2.71)"/><path class="uuid-ffd7dc22-5311-4ed1-9c70-b036cbfc030e" d="m612.54,1028.66l-520.79,32.07c-3.5-3.09-7-6.19-10.5-9.28-11.81-193.19-23.61-386.38-35.42-579.57,2.87-8.92,5.74-17.84,8.6-26.76-3.61-3.07-7.22-6.13-10.84-9.2-1.28-20.52-2.55-41.05-3.83-61.57,2.05-4.13,4.11-8.26,6.16-12.39-2.83-8.26-5.65-16.52-8.48-24.79-3.97-63.45-7.94-126.89-11.91-190.34-.04-.66-.19-4.17,2.47-7.17,1.68-1.9,4.08-3.16,6.81-3.33l520.79-32.07c5.46-.34,10.16,3.82,10.5,9.28l55.71,904.63c-3.09,3.5-6.19,7-9.28,10.5Z"/><path class="uuid-2e566b24-cfba-470c-8973-854bf35db26f" d="m46.93,361.97c74.05-2.33,148.11-4.66,222.16-6.99-76.9-6.05-153.81-12.11-230.71-18.16,2.85,8.39,5.7,16.77,8.55,25.16Z"/><path class="uuid-2e566b24-cfba-470c-8973-854bf35db26f" d="m56.43,445.16c98.78-2.69,148.16-4.8,148.14-6.33-.02-1.59-53.35-2.55-159.97-2.89l11.84,9.22Z"/><rect class="uuid-2e566b24-cfba-470c-8973-854bf35db26f" x="547.31" y="386.6" width="535.21" height="1197.07" rx="9.91" ry="9.91" transform="translate(55.38 -43.31) rotate(3.15)"/><path class="uuid-13dfb0d4-991a-49b0-96b2-51d32486a381" d="m978.61,2807.98c-209.67-19.52-419.34-39.04-629.02-58.57-121.82,34.68-212.63,59.33-216.7,58.57-5.43-1.02-7.7-7.08-7.7-7.08,0,0,0,0,0,0-1.97-4.37-3.19-10.42-3.19-17.09V33.17c0-13.35,4.88-24.17,10.89-24.17h845.72c3.63,8.06,7.26,16.11,10.89,24.17,1.83,911.11,3.66,1822.22,5.5,2733.33-5.46,13.83-10.93,27.66-16.39,41.48Z"/></svg>