<?xml version="1.0" encoding="UTF-8"?><svg xmlns="http://www.w3.org/2000/svg" width="743" height="1983" xmlns:xlink="http://www.w3.org/1999/xlink" viewBox="0 0 743 1983"><defs><style>.uuid-86c57f94-1ccb-4221-a42d-254071e15bfa{fill:#999;}.uuid-86c57f94-1ccb-4221-a42d-254071e15bfa,.uuid-5547e0b3-b01d-4ded-8018-e26235ab70ce,.uuid-3428b400-eb31-4fc8-b90d-e25dbdf1a84b,.uuid-96b7e82f-7f71-4994-bbec-17ff49c5d0f3,.uuid-9e7da419-8af2-459c-ad16-1b296dc70e42,.uuid-f44c3984-bf7d-4687-8c60-b6c94c720206,.uuid-d6d1cbd4-91e0-455a-877b-9a3ce13f17ca,.uuid-0e45072d-68e2-446b-8844-31839c822b13,.uuid-a2bda6b3-f953-4a2d-9bca-1ef609779cde,.uuid-a4182478-71cc-4cbe-887d-21769454e0e4,.uuid-4c1b4f9f-6f41-4897-8083-1dd4db309a17,.uuid-39a33385-b4cc-4cfd-8204-a99b516a0a84,.uuid-7f5ed52a-ace7-4907-a34a-ce1ac80b8d3e,.uuid-70eeaca9-848c-482c-a02f-f15d9387e720,.uuid-99c8bf16-f8f0-4ad7-a9a9-0a0b95bc5a22,.uuid-85972cd9-64d8-498a-83ea-84d2fbd5abae,.uuid-c789fdd6-ef34-4749-88a8-d918ed21206c,.uuid-8bab9224-282b-4e07-b6fe-9980a30a17a1,.uuid-6c20a5f3-4762-483b-8ab7-a822eb2f9d61,.uuid-55ca46d2-fc3d-4882-a514-c230dd9c90de,.uuid-dbae29e5-ffaa-426e-a989-21b70ed1bebc,.uuid-62d2b492-11e5-45a2-ae6e-ef81d4f8f3cb{stroke-width:0px;}.uuid-5547e0b3-b01d-4ded-8018-e26235ab70ce{fill:#db623c;}.uuid-3428b400-eb31-4fc8-b90d-e25dbdf1a84b{fill:#2f3e49;}.uuid-96b7e82f-7f71-4994-bbec-17ff49c5d0f3{fill:#974e5b;}.uuid-9e7da419-8af2-459c-ad16-1b296dc70e42{fill:#3a1310;}.uuid-f44c3984-bf7d-4687-8c60-b6c94c720206{fill:#f0eeea;}.uuid-d6d1cbd4-91e0-455a-877b-9a3ce13f17ca{fill:#487b8f;}.uuid-0e45072d-68e2-446b-8844-31839c822b13{fill:#3f6679;}.uuid-a2bda6b3-f953-4a2d-9bca-1ef609779cde{fill:#ddd8ce;}.uuid-a4182478-71cc-4cbe-887d-21769454e0e4{fill:#cd4c30;}.uuid-4c1b4f9f-6f41-4897-8083-1dd4db309a17{fill:#3d5c6d;}.uuid-39a33385-b4cc-4cfd-8204-a99b516a0a84{fill:#d86238;}.uuid-7f5ed52a-ace7-4907-a34a-ce1ac80b8d3e{fill:#aa3a29;}.uuid-70eeaca9-848c-482c-a02f-f15d9387e720{fill:#6697aa;}.uuid-99c8bf16-f8f0-4ad7-a9a9-0a0b95bc5a22{fill:#883228;}.uuid-d64c5903-230b-4d40-b9f5-e5469a5de93a{fill:none;stroke:#cd4c30;stroke-linecap:round;stroke-linejoin:round;stroke-width:.92px;}.uuid-85972cd9-64d8-498a-83ea-84d2fbd5abae{fill:#df8158;}.uuid-c789fdd6-ef34-4749-88a8-d918ed21206c{fill:silver;}.uuid-8bab9224-282b-4e07-b6fe-9980a30a17a1{fill:#eccec4;}.uuid-6c20a5f3-4762-483b-8ab7-a822eb2f9d61{fill:#e2815a;}.uuid-55ca46d2-fc3d-4882-a514-c230dd9c90de{fill:#6d2922;}.uuid-dbae29e5-ffaa-426e-a989-21b70ed1bebc{fill:#314e5b;}.uuid-62d2b492-11e5-45a2-ae6e-ef81d4f8f3cb{fill:url(#uuid-f5ea4cd4-3b71-489f-87c5-b19c5d95d738);}</style><linearGradient id="uuid-f5ea4cd4-3b71-489f-87c5-b19c5d95d738" x1="370.7" y1="210.34" x2="371.15" y2="179.3" gradientUnits="userSpaceOnUse"><stop offset="0" stop-color="#fff"/><stop offset=".22" stop-color="#bfbfbf"/><stop offset=".47" stop-color="#7c7c7c"/></linearGradient></defs><g id="uuid-3c240193-715b-47b9-8132-09701ed7e9a1"><path class="uuid-f44c3984-bf7d-4687-8c60-b6c94c720206" d="m151,285c-5.23,6.62-13.93,15.95-27,23-9.97,5.38-24.01,10.26-82,10-17.57-.08-32.09-.6-42-1.05v456.05h743V164.03c-213-.68-426-1.35-639-2.03,4.94,2.14,41.85,18.89,53,60.22,8.23,30.5-2.63,55.66-6,62.78Z"/><path class="uuid-dbae29e5-ffaa-426e-a989-21b70ed1bebc" d="m192.82,70.83c2.04,68.91,4.08,137.83,6.12,206.74,24.05-2.27,51.19-3.65,80.88-3.22,32.9.48,62.65,3.11,88.62,6.62,1.57-68.48,3.14-136.96,4.71-205.43-60.11-1.57-120.22-3.14-180.33-4.72Z"/><path class="uuid-99c8bf16-f8f0-4ad7-a9a9-0a0b95bc5a22" d="m244.48,221.12c3.37.14,8.74.54,15.36,1.84,1.27,3.34,2.69,8.18,3.07,14.14.45,7.07-.75,12.86-1.84,16.59-.92,11.78-1.84,23.56-2.77,35.34-1.95,1.54-3.89,3.07-5.84,4.61-5.91.02-11.85.02-17.82,0-15.35-.06-30.51-.27-45.48-.61-8.35.29-16.86.5-25.51.61-10.99.15-21.75.14-32.27,0-2.84-1.74-9.63-6.34-9.22-11.68.43-5.59,8.52-9.05,11.68-10.45,43.82-19.42,63.03-52.41,110.63-50.4Z"/><path class="uuid-7f5ed52a-ace7-4907-a34a-ce1ac80b8d3e" d="m142.15,284.73c-10.12.48-12.4,1.88-12.6,3.07-.27,1.58,2.94,3.66,5.22,4.61,2.87,1.19,5.4,1.05,6.97.98,2.46-.11,7.1.32,16.39.25,10.87-.08,11.78.22,16.29-.31,5.62-.66,10.16-1.84,13.21-2.77,19.56.31,39.13.61,58.69.92.46.07,4.64.62,7.68-2.46,2.12-2.15,2.4-4.76,2.46-5.53.82-17.93,1.64-35.85,2.46-53.78-.41-1.3-1.31-3.46-3.38-4.92-2.11-1.49-4.4-1.52-5.84-1.54-4.68-.06-10.04-.2-16.29-.31-2.97-1.54-5.94-3.07-8.91-4.61,9.01.1,18.03.2,27.04.31.87-.12,5.47-.7,9.53,2.46,2.98,2.32,3.99,5.35,4.3,6.45-1.02,19.36-2.05,38.72-3.07,58.08-.18,1.44-.78,4.39-3.07,7.07-4.5,5.24-11.51,4.68-12.29,4.61-24.53-.93-49.63-1.56-75.29-1.84-20.75-.23-41.14-.22-61.15,0-12.29-5.53-24.58-11.06-36.88-16.59,21.72-.61,43.43-1.23,65.15-1.84,1.13,2.56,2.25,5.12,3.38,7.68Z"/><path class="uuid-6c20a5f3-4762-483b-8ab7-a822eb2f9d61" d="m252.16,218.67c-.17.46-.42,1.21-.61,2.15-.27,1.31-.3,2.34-.31,2.77-.04,1.86-.43,22.44-.92,50.7.06.29.47,2.65-1.23,4.61-1.79,2.05-4.35,1.87-4.61,1.84-12.19-.2-24.38-.41-36.57-.61,3.79-20.59,7.58-41.18,11.37-61.77,10.96.1,21.92.2,32.88.31Z"/><path class="uuid-f44c3984-bf7d-4687-8c60-b6c94c720206" d="m148.16,294.4c-.98,1.9-2.55,4.89-4.88,8.33,0,0-1.73,2.55-3.64,4.88-3.49,4.26-15.09,12.29-31.66,18.74,145.17.67,290.35,1.34,435.52,2.01-9.17-54.12-18.33-108.25-27.5-162.37l-351-3c.14,11.25.09,22.82-.2,34.69-.16,6.73-.4,13.36-.69,19.89,0,0-2.83,51.53-15.94,76.82Z"/><path class="uuid-0e45072d-68e2-446b-8844-31839c822b13" d="m396.42,115.12c-.98-21.57-4.25-58.95-22.45-72.07-6.44-4.65-12.21-5.86-23.63-8.27-23.31-4.91-30.76.96-64.98,2.36-33.72,1.39-50.58,2.08-62.62,0-5.47-.94-12.81-2.51-20.09,1.18-8.5,4.31-12.2,13.4-18.2,28.15-.85,2.08-4.43,11.06-7.04,23.56,0,0-1.43,6.85-2.1,13-2.17,19.8,4.28,41.23,7.25,49.9,8.6,25.07,21.83,41.51,29.3,50.63,6.41,7.82,12.39,13.8,16.78,17.9,1.1.27,8.99,2.11,15.81-3.03,4.68-3.52,6.2-8.32,6.64-9.97-2.55-3.05-5.92-7.31-9.53-12.64-2.02-2.99-10.49-15.72-17.64-34.62-3.59-9.47-7.48-22.19-9.76-37.61,4,3.61,10.4,8.68,19.22,12.8,9.88,4.61,17.09,5.37,49.62,7.09,35.19,1.86,41.36,1.74,49.62-2.36,9.88-4.9,16.27-12.28,20.09-17.72,2.93,9.88,5.63,22.11,6.77,36.27.74,9.15.7,17.51.26,24.89,2.01,1.33,9.42,5.9,19.13,4.45,5.44-.81,9.39-3.18,11.53-4.72,6.25-28.48,6.79-52.39,6.02-69.17Z"/><path class="uuid-8bab9224-282b-4e07-b6fe-9980a30a17a1" d="m262.1,233.33c.26.28.48.53.72.78,2.51,2.6,6.54,6.07,6.54,6.07,2.53,2.49,5.05,4.97,7.58,7.46.2.14.96.64,1.82.42.85-.21,1.25-.98,1.56-1.56.83-1.58.64-3.22.47-4.04-14.87-14.46-18.42-18.4-18.28-18.28,2.64,2.17,5.06,3.62,6.85,4.57,3.75,1.98,6.67,3.47,9.14,2.28,1.16-.56,1.87-1.53,2.28-2.28-1.7-.91-4.17-2.38-6.85-4.57-2.65-2.15-2.95-2.99-6.85-6.85-6.13-6.08-8.48-7.15-9.7-7.63-2.37-.92-4.5-1.14-5.91-1.18-1.35-1.55-2.71-3.15-4.07-4.81-2.95-3.6-5.65-7.15-8.12-10.6-13.96-9.3-26.98-11.13-31.9-5.91-1.01,1.08-2.31,3.11-2.36,7.09,4.41,6.38,9.84,13.23,16.54,20.09,2.51,2.57,5.01,4.95,7.47,7.15.17,1.44.49,3.5,1.18,5.91,1.38,4.8,3.41,8.11,4.89,10.47,5.18,8.26,10.27,15.5,12.83,19.07.78.41,1.99.94,3.54,1.18,1.46.23,2.7.13,3.54,0,2.5,2.39,5,4.78,7.5,7.17.51.2,1.27.47,2.22.68,5.51,1.23,9.81-1.19,13.25-3.12.46-.26,1.19-.7,1.56-1.56.4-.93.16-1.88,0-2.34-13.65-18.13-17.42-23.67-18.62-25.64-.08-.13-1.36-2.23-1.18-2.36.18-.13,1.48,1.38,2.36,2.36Z"/><path class="uuid-6c20a5f3-4762-483b-8ab7-a822eb2f9d61" d="m73.93,229.11h-5.84c-1.76,2.61-5.24,8.54-5.84,16.9-.65,9.13,2.52,15.98,3.99,18.75,1.84-.2,3.69-.41,5.53-.61.72-11.68,1.43-23.35,2.15-35.03Z"/><path class="uuid-7f5ed52a-ace7-4907-a34a-ce1ac80b8d3e" d="m70.55,238.03c-.53,3.34-1.98,13.62,0,27.04.86,5.8,2.09,10.54,3.07,13.83,4.51,1.64,9.01,3.28,13.52,4.92,47.22.92,94.44,1.84,141.66,2.77.98.13,3.78.36,6.76-1.23,2.13-1.14,3.53-2.83,4.61-4.61,9.69-15.93,10.14-36.26,10.14-36.26s.31-13.9-5.01-26.37c-.39-.91-1.06-2.32-2.36-3.75-3.42-3.75-8.33-4.38-10.14-4.61-8.63-1.11-66.32-.79-145.35.92-2.33.66-5.6,1.94-8.6,4.61-5.66,5.03-6.56,11.77-8.3,22.74Z"/><path class="uuid-99c8bf16-f8f0-4ad7-a9a9-0a0b95bc5a22" d="m105.27,277.36c-.47-3.65,1.51-6.32,1.84-6.76,2.8-3.65,7.17-3.69,7.68-3.69,2.65.77,5.31,1.54,7.96,2.31-2.5-2.31-5.93-3.93-9.5-3.54-3.33.36-7.39,2.53-8.91,6.76-1.29,3.58-.71,8.49,2.46,10.76,1.19.86,2.48,1.13,3.38,1.23.02,0,.04,0,.06,0-1.64-.99-4.49-3.23-4.98-7.07Z"/><path class="uuid-99c8bf16-f8f0-4ad7-a9a9-0a0b95bc5a22" d="m132.62,284.73c-1.03-.74-2.44-1.92-3.69-3.69-.95-1.34-1.44-2.49-1.77-3.57-.3,3.48-2.42,5.88-2.84,6.34-.33.36-.66.68-1,.96,3.57.03,6.95,0,9.29-.04Z"/><path class="uuid-a4182478-71cc-4cbe-887d-21769454e0e4" d="m125.86,273.36c-.67-1.44-1.75-2.89-3.1-4.14-2.65-.77-5.31-1.54-7.96-2.31-.51,0-4.89.04-7.68,3.69-.34.44-2.31,3.11-1.84,6.76.49,3.84,3.33,6.08,4.98,7.07.65.39,1.11.59,1.17.61,2.97.51,5.94,1.02,8.91,1.54.63-.03,3.02-.23,4.92-2.15,2.75-2.78,1.98-6.65,1.91-6.95-.44-1.4-.63-2.68-1.3-4.11Z"/><path class="uuid-6c20a5f3-4762-483b-8ab7-a822eb2f9d61" d="m112.96,267.83c4.7-.1,8.37,4.42,7.99,8.91-.32,3.72-3.4,7.16-7.38,7.38-4.4.24-8.21-3.57-8.3-7.99-.09-4.31,3.39-8.21,7.68-8.3Z"/><path class="uuid-99c8bf16-f8f0-4ad7-a9a9-0a0b95bc5a22" d="m170.27,278.59c.72,1.74,1.43,3.48,2.15,5.22h19.97c-.41-1.84-.82-3.69-1.23-5.53-6.97.1-13.93.2-20.9.31Z"/><path class="uuid-6c20a5f3-4762-483b-8ab7-a822eb2f9d61" d="m171.34,281.05c6.76-.1,13.52-.2,20.28-.31-.2-.72-.41-1.43-.61-2.15l-.92-1.84.92-11.98c-7.68.2-15.36.41-23.05.61v3.38c3.69-.1,7.38-.2,11.06-.31-.76.3-2.19.98-3.38,2.46-.63.78-1,1.56-1.23,2.15-1.4-.81-3.13-.68-4.3.31-1.5,1.27-1.25,3.26-1.23,3.38.82,1.43,1.64,2.87,2.46,4.3Z"/><path class="uuid-99c8bf16-f8f0-4ad7-a9a9-0a0b95bc5a22" d="m187.94,246.32c-.39,0-1.15-12.15-.31-26.38.26-4.41.62-8.11.92-10.81h1.54c-.16,2.3-.38,5.46-.61,9.22-1.22,19.6-1.21,27.97-1.54,27.97Z"/><line class="uuid-d64c5903-230b-4d40-b9f5-e5469a5de93a" x1="118.95" y1="285.5" x2="184.1" y2="275.05"/><line class="uuid-d64c5903-230b-4d40-b9f5-e5469a5de93a" x1="187.78" y1="270.45" x2="187.78" y2="245.25"/><circle class="uuid-5547e0b3-b01d-4ded-8018-e26235ab70ce" cx="184.56" cy="271.52" r="3.99"/><circle class="uuid-5547e0b3-b01d-4ded-8018-e26235ab70ce" cx="113.26" cy="275.82" r="2.15"/><path class="uuid-99c8bf16-f8f0-4ad7-a9a9-0a0b95bc5a22" d="m197.16,228.63c.47,1.47,1.68,2.51,3.07,2.64,1.59.14,3.13-.93,3.69-2.64.2-6.5.41-12.99.61-19.49h-6.45c-.31,6.5-.61,12.99-.92,19.49Z"/><path class="uuid-6c20a5f3-4762-483b-8ab7-a822eb2f9d61" d="m76.39,269.68c-.46.22-1.77.93-2.46,2.46-.86,1.9-.33,4.1.92,5.53,1.59,1.82,4.06,2.08,5.84,1.54,1.22-.37,2.04-1.1,2.46-1.54.41-.82.82-1.64,1.23-2.46.05-.41.27-2.59-1.23-4.3-1.55-1.76-4.29-2.3-6.76-1.23Z"/><path class="uuid-99c8bf16-f8f0-4ad7-a9a9-0a0b95bc5a22" d="m91.6,272.9c.45-.52,1.3-1.37,2.58-1.99h-8.26c-.17.37-.66,1.57-.31,3.07.39,1.65,1.54,2.54,1.84,2.77h.99c.94-.89,1.88-1.78,2.81-2.66.11-.39.23-.79.34-1.18Z"/><path class="uuid-99c8bf16-f8f0-4ad7-a9a9-0a0b95bc5a22" d="m96.36,276.75c.05-.06.15-.19.28-.39-.16.12-.35.24-.55.39h.27Z"/><path class="uuid-6c20a5f3-4762-483b-8ab7-a822eb2f9d61" d="m97.28,273.67c-.19-1.67-1.32-2.6-1.54-2.77h-1.57c-1.28.62-2.12,1.47-2.58,1.99-.11.39-.23.79-.34,1.18-.78.57-1.64,1.16-2.58,1.74-.74.46-1.46.86-2.15,1.23-.83,1.09-.77,2.55,0,3.38.95,1.02,2.88,1.03,3.99-.31,1.35-1.05,2.71-2.11,4.06-3.16.17.16.34.31.51.47.38-.26.71-.48,1-.68.2-.14.39-.27.55-.39.33-.51.78-1.46.64-2.69Z"/><path class="uuid-6c20a5f3-4762-483b-8ab7-a822eb2f9d61" d="m133.85,210.68c1.36,1.04,4.24,2.93,8.3,3.38,7.15.8,12.27-3.49,13.21-4.3,1.43-.1,2.87-.2,4.3-.31v-10.14c-2.3-1.2-7.55-3.54-14.44-3.07-4.88.33-8.6,1.94-10.76,3.07-.2,3.79-.41,7.58-.61,11.37Z"/><path class="uuid-99c8bf16-f8f0-4ad7-a9a9-0a0b95bc5a22" d="m103.74,242.33c.1,9.64,17.19,17.79,31.16,18.13,15.8.38,34.07-9.08,33.99-18.75-.09-9.79-19.03-19.15-35.25-18.13-13.54.85-30,9.23-29.9,18.75Z"/><path class="uuid-7f5ed52a-ace7-4907-a34a-ce1ac80b8d3e" d="m108.07,248.17c-.52.48-1.36.82-2.11.61-.29-.08-.86-.31-1.89-2.46-.38-.8-.86-1.94-1.26-3.38-.2-2.77-.41-5.53-.61-8.3.02-.42.13-1.49.92-2.46,1.34-1.64,3.45-1.55,3.69-1.54,30.08-.16,50.78-.28,52.31-.31.08,0,.37,0,.76,0,.78.03,1.99.16,3.36.6,1.31.43,2.35,1.02,3.12,1.54.54.84,1.25,2.09,1.89,3.69.67,1.7,1.28,3.23,1.26,5.22-.01.98-.19,2.96-1.54,5.22-.15.24-.82,1.23-2.1,1.54-1.28.31-2.67-.17-3.6-1.23-1.08-.41-2.16-.82-3.23-1.23-16.72.2-33.45.41-50.17.61,0,.16,0,1.12-.79,1.84Z"/><path class="uuid-a2bda6b3-f953-4a2d-9bca-1ef609779cde" d="m152.03,295.96c28.99.31,57.98.61,86.96.92h0s0,0,0,0c-.01,0-20.78-.46-51.31,4.61-23.39,3.88-41.93,9.26-48.55,11.68-.42.15-10.14,3.7-10.14,3.69,0,0,0,0,0,0,3.37-1.9,7.32-4.49,11.37-7.99,5.24-4.52,9.03-9.14,11.68-12.91Z"/><path class="uuid-8bab9224-282b-4e07-b6fe-9980a30a17a1" d="m382.99,228.31c-.33-2.26-.88-4.2-1.47-5.78.75-2.37,1.49-4.82,2.2-7.36,1.03-3.65,1.71-6.43,2.06-7.88,1.75-7.19,3.06-14.02,3.82-18.28.52-3.67,1.05-7.34,1.57-11.01-1.68-.95-9.07-4.88-18.34-2.62-7.3,1.78-11.62,6.39-13.1,8.12-.01,6.38-.43,13.61-1.57,21.49-.77,5.31-1.77,10.21-2.88,14.67-1.15.72-2.76,1.88-4.47,3.65,0,0-.21.22-.4.42-.99,1.11-2.63,3.48-5.35,10.5-1.98,5.12-1.92,6.01-3.46,9.06-1.56,3.09-3.21,5.44-4.39,6.97.69.52,1.73,1.12,3.02,1.15,2.74.07,4.8-2.48,7.41-5.82,1.25-1.6,2.87-3.91,4.39-6.97.08-.16-1.56,4.88-9.23,24.15,0,.43.05,1.41.67,2.44.52.86,1.2,1.34,1.56,1.56.22.09,1.35.55,2.34,0,.21-.12.38-.26.51-.4,5.3-11.19,7.38-16.64,8.26-19.56.19-.62.94-3.18,1.19-3.12.22.05-.03,1.94-.11,2.64-.29,2.28-1.31,8.37-5.4,27.37-.04.17-.19.9.23,1.65.45.8,1.21,1.05,1.37,1.09,1.65.18,3.61.25,5.8.03,5.04-.52,8.9-2.35,11.27-3.74.75-2.05,1.5-4.1,2.25-6.15.82-.22,1.99-.64,3.24-1.45,1.32-.86,2.21-1.83,2.75-2.53.83-5.99,1.66-11.98,2.5-17.97.4-.67.93-1.73,1.19-3.12.2-1.06.18-1.97.11-2.64.57-2.49,1.09-6.18.46-10.56Z"/><path class="uuid-3428b400-eb31-4fc8-b90d-e25dbdf1a84b" d="m359.74,183.5c10.59-7.98,21.77-9.65,27.25-4.98,1.12.95,2.57,2.65,3.41,5.76.52-2.45,1.05-4.89,1.57-7.34-.54-4.54-2.34-6.48-3.41-7.34-5.35-4.27-17.26-1.16-28.56,9.43-.09,1.48-.17,2.97-.26,4.45Z"/><path class="uuid-3428b400-eb31-4fc8-b90d-e25dbdf1a84b" d="m241.56,195.82c-13.34-8.22-26.26-9.79-31.97-4.19-1.08,1.06-2.21,2.68-2.88,5.24-.59-.6-1.21-1.3-1.83-2.1-.87-1.11-1.55-2.18-2.1-3.14-.66-4.76.54-6.99,1.57-8.12,4.64-5.06,18.62-1.71,35.11,8.65.7,1.22,1.4,2.45,2.1,3.67Z"/><path class="uuid-62d2b492-11e5-45a2-ae6e-ef81d4f8f3cb" d="m385.68,209.71c-.55-.68-1.32-1.56-2.33-2.48.52-1.92.09-3.7-1.03-4.08-.86-.29-1.89.32-2.67,1.45-.78-.42-1.62-.81-2.53-1.15.05-2.16-.78-3.91-2.1-4.15-1.29-.23-2.65,1.08-3.35,3.06-.95-.04-1.88,0-2.78.08-.38-1.29-1.16-2.17-2.05-2.17-1.08,0-1.99,1.3-2.24,3.04-3.96,1.21-6.72,3.15-7.22,3.51-1.76.85-2.5,2.42-2.1,3.41.26.63.94.92,1.31,1.05,2.57-2.19,5.45-3.76,8.4-4.65.42.97,1.09,1.6,1.84,1.6.94,0,1.75-.98,2.11-2.37.76-.07,1.52-.09,2.27-.06.15,1.76.93,3.11,2.07,3.31,1.12.2,2.29-.76,3.03-2.31.24.09.48.18.71.28.53.23,1.02.48,1.49.75-.09,1.41.36,2.56,1.24,2.85.59.2,1.26-.03,1.88-.55,1.23,1.16,2.12,2.33,2.73,3.24.29-.01.87-.09,1.31-.52.69-.68.75-2,0-3.14Z"/><path class="uuid-d6d1cbd4-91e0-455a-877b-9a3ce13f17ca" d="m234.55,78.49c-2.65-10.5-4.05-17.11-9.45-24.81-6.05-8.63-13.71-13.72-19.17-16.66,6.98-2.2,17.19-4.8,29.81-5.79,1.18-.09,6.52-.69,13.72-.4,11.66.47,18.46,3.06,37.08,2.76,21.38-.34,29.25-4,41.34-4.29,6.56-.15,10.16.52,11.83.74,14.88,2.01,26.15,7.81,33.13,12.22-4.01.69-11.04,2.46-17.99,7.67-1.74,1.3-5.5,4.34-9.24,9.65-6.72,9.57-7.93,18.8-9.72,28.01-3.89,20.03-6.11,31.47-12.32,40.09-4.89,6.79-14.36,14.76-34.68,18.15-22.79-3.61-33.47-12.4-38.99-20.09-5.31-7.39-8.66-20.68-15.36-47.26Z"/><path class="uuid-0e45072d-68e2-446b-8844-31839c822b13" d="m250.47,105.94c-3.52-8.7-4.77-15.88-5.24-19.13-1.68-11.52-3.29-22.55,1.57-27.78,11.18-12,56.72,4.58,57.91,21.75,1.05,15.13-32.57,29.45-28.3,42.45.8,2.44,3.75,7.32,4.72,8.91,2.94,4.85,5.82,8.56,7.86,11.01-6.37-1.73-15.29-5.28-23.32-12.84-8.63-8.12-12.27-17.12-15.2-24.37Z"/><path class="uuid-0e45072d-68e2-446b-8844-31839c822b13" d="m325.41,64.54c3.56,2.19,2.65,10.24,1.05,24.37-.73,6.49-1.84,15.48-7.34,25.16-3.29,5.79-5.22,9.19-9.43,11.53-4.22,2.34-7.97,2.1-11.53,5.76-2.13,2.2-3.15,4.73-3.67,6.55-8.35-1.31-18.9-4.34-22.27-12.05-9.41-21.56,42.46-67.92,53.19-61.32Z"/><path class="uuid-d6d1cbd4-91e0-455a-877b-9a3ce13f17ca" d="m245.39,56.32c1.04-4.18,4.95-17.51,17.72-25.99,13.89-9.23,34.63-10.32,48.44,1.18,9.83,8.18,12.31,19.54,13,23.63-.39,4.33-.79,8.66-1.18,13,1.4.8,2.04,1.72,2.36,2.36,1.57,3.11-.23,7.98-4.73,11.82-.17,4.43-.69,11.03-2.36,18.9-1.17,5.53-1.83,8.62-3.54,11.82-1.43,2.66-6.19,10.23-20.09,14.18h-14.18c-12.33-1.45-18.04-7.08-20.09-9.45-.8-.93-3.13-3.77-7.09-15.36-2.73-8-4.39-14.75-5.39-19.34-4.99-3.61-6.8-8.56-5.24-11.38.28-.5,1.1-1.72,3.41-2.43-.35-4.31-.7-8.62-1.05-12.93Z"/><path class="uuid-8bab9224-282b-4e07-b6fe-9980a30a17a1" d="m316.24,108.82c-.24,1.6-.65,3-1.14,4.21-4.28,10.51-17.32,13.58-20.09,14.18-.01.73-.14,2.46-1.31,4.15-1.82,2.62-4.73,3.07-5.24,3.14-.73-.12-4.54-.83-6.55-4.19-.68-1.14-.96-2.26-1.08-3.1-1.43.01-13.74-.09-20.09-9.45-2.05-3.02-2.87-6.1-3.2-8.41,8.47,1.46,18.84,2.56,30.66,2.36,10.72-.18,20.17-1.39,28.04-2.88Z"/><path class="uuid-dbae29e5-ffaa-426e-a989-21b70ed1bebc" d="m281.33,123.61c-1.87.07-4.47-.06-7.41-.97-1.54-.48-2.85-1.07-3.93-1.64-.26.26-.64.59-1.16.88-.47.26-.9.42-1.24.51.45.12,1.11.23,1.9.16.51-.04.94-.14,1.29-.25-.19.22-.41.44-.67.66-.96.81-1.98,1.16-2.68,1.32.83.03,1.91-.03,3.14-.34.67-.17,1.25-.39,1.75-.61-.15.28-.35.6-.62.92-.73.86-1.59,1.28-2.11,1.48.75-.1,1.72-.32,2.78-.81.56-.26,1.04-.54,1.44-.81.99.12,2.17.19,3.49.12,1.58-.08,2.94-.34,4.03-.62Z"/><path class="uuid-dbae29e5-ffaa-426e-a989-21b70ed1bebc" d="m307.5,121c-1.73.7-4.23,1.47-7.29,1.62-1.61.08-3.05-.03-4.26-.2-.16.33-.4.77-.79,1.22-.35.41-.7.7-.99.9.47-.05,1.12-.17,1.84-.49.46-.21.84-.46,1.12-.67-.1.27-.23.56-.4.85-.62,1.09-1.46,1.77-2.07,2.16.79-.26,1.79-.68,2.83-1.39.57-.39,1.05-.79,1.44-1.17-.04.32-.12.68-.27,1.08-.39,1.06-1.06,1.74-1.48,2.11.67-.35,1.51-.89,2.34-1.71.44-.43.79-.87,1.08-1.26.97-.22,2.1-.56,3.33-1.08,1.46-.62,2.65-1.32,3.57-1.96Z"/><path class="uuid-96b7e82f-7f71-4994-bbec-17ff49c5d0f3" d="m264.66,115.28c1.19-.26,2.55-.43,4.05-.41,6.29.1,10.84,3.61,12.69,5.23.09.55.18,1.09.27,1.64-1.75-1.39-6.47-4.73-12.82-4.46-1.79.08-3.35.42-4.65.84l.46-2.85Z"/><path class="uuid-96b7e82f-7f71-4994-bbec-17ff49c5d0f3" d="m309.06,115.28c-1.19-.26-2.55-.43-4.05-.41-6.29.1-10.84,3.61-12.69,5.23-.09.55-.18,1.09-.27,1.64,1.75-1.39,6.47-4.73,12.82-4.46,1.79.08,3.35.42,4.65.84l-.46-2.85Z"/><path class="uuid-c789fdd6-ef34-4749-88a8-d918ed21206c" d="m570.9,205.39c-3.77-2.99-7.57-6.1-11.41-9.34-7.63-6.44-14.76-12.87-21.42-19.2.12-.16.33-.41.69-.56.86-.37,1.7.17,1.78.22,7.02,3.91,14.28,8.26,21.7,13.11,3.71,2.43,7.29,4.87,10.73,7.3-.69,2.82-1.39,5.64-2.08,8.46Z"/><path class="uuid-a4182478-71cc-4cbe-887d-21769454e0e4" d="m568.26,205.17c4.6,1.88,9.2,3.76,13.79,5.64,1.64-1.38,4.05-3.19,7.24-4.83,3.16-1.63,5.53-2.86,8.96-3.19,4.18-.41,7.77.71,10.56,1.58,1.5.47,2.73.96,3.59,1.33,0,.63.01,1.26.02,1.89l3.97,1.79c.56-.38,1.11-.75,1.67-1.13.91.27,3.01.76,5.37-.04,2.7-.92,5.46-3.47,5.58-6.59.07-2.08-1.05-3.63-1.72-4.53-3.33-4.55-9.35-5.15-11.19-5.33-3.24-.32-5.58.21-8.81.94-5.58,1.27-9.63,3.3-13.71,5.39-3.16,1.61-5.73,3.17-7.61,4.38-3.57-1.37-7.15-2.74-10.72-4.11-.92.63-1.91,1.39-2.92,2.3-1.74,1.56-3.07,3.15-4.07,4.53Zm41.9-8.58c.36-.32.95-.77,1.79-1.07.9-.33,1.72-.35,2.58-.28,3.6.29,6.88,2.1,8.53,3.85.23.24.56.63.76,1.21.33.98.12,2.13-.47,2.97-.78,1.1-1.99,1.35-2.54,1.46-1.06.22-2.23.11-4.4-.83-1.71-.74-6.95-3.01-6.84-5.69.04-.91.58-1.62.58-1.62Z"/><path class="uuid-7f5ed52a-ace7-4907-a34a-ce1ac80b8d3e" d="m572.27,200.62c1.01-.91,2-1.67,2.92-2.3,3.57,1.37,7.15,2.74,10.72,4.11.97-.62,2.12-1.34,3.44-2.1.39.7.63,1.48.57,2.39-.07,1.11-.39,2.36-.99,3.39-3.04,1.6-5.36,3.34-6.94,4.68-4.6-1.88-9.2-3.76-13.79-5.64,1-1.38,2.33-2.96,4.07-4.53Z"/><path class="uuid-c789fdd6-ef34-4749-88a8-d918ed21206c" d="m568.86,205.44c-5.34-2.15-10.87-4.53-16.57-7.18-6.75-3.14-13.07-6.36-18.97-9.57-.14-.11-.64-.51-.76-1.21-.05-.29-.01-.54.03-.71,7.58,1.66,15.47,3.64,23.6,6.02,3.07.9,6.08,1.82,9.02,2.77,2.09,1.04,4.17,2.07,6.26,3.11-.52,1.69-1.04,3.38-1.57,5.08-.35.56-.7,1.13-1.05,1.69Z"/><path class="uuid-86c57f94-1ccb-4221-a42d-254071e15bfa" d="m570.92,205.36c-3.77-2.99-7.57-6.1-11.41-9.34-7.63-6.44-14.76-12.87-21.42-19.2.32.02.74.09,1.19.25.82.29,1.38.75,1.69,1.05,6.89,5.66,13.79,11.33,20.68,16.99,3.23,2.56,6.46,5.13,9.69,7.69-.14.85-.29,1.7-.43,2.55Z"/><path class="uuid-a4182478-71cc-4cbe-887d-21769454e0e4" d="m570.47,201.54c-.2,1.85.09,3.38.35,4.35,4.42,3.25,8.83,6.49,13.25,9.74,1.92.43,3.85.87,5.77,1.3,2.94,4.74,6.01,8.15,8.32,10.4,3.07,3,5.68,5.5,9.96,7.09,2.02.75,7.11,2.64,10.75.22.42-.28,2.16-1.44,2.58-3.47.34-1.67-.37-3.13-.99-4.21-2.26-3.92-5.29-6.26-10.09-10.33-4.96-4.21-5.8-5.18-8.33-6.22-2.38-.97-4.07-1.66-6.31-1.4-1.64.19-5.57,1.14-8.88,2.07-.29.08-.94.27-1.42-.06-.22-.15-.65-.58-.49-3.4.05-.79.14-1.82.35-3.02-4.26-2.84-8.53-5.68-12.79-8.51-.64.93-1.74,2.82-2.02,5.45Zm26.94,12.73c1.1-.51,2.49.37,3.34.93,3.54,2.3,6.37,4.55,6.99,5.03,0,0,6.26,4.91,8.92,7.78.27.29.86.95.71,1.62-.15.71-1.03,1.08-1.43,1.24-.85.34-2.54.76-5.91-.35-1.47-.49-3.63-1.39-5.97-3.12-.62-.51-1.61-1.38-2.76-2.54-2.65-2.7-5.83-5.95-5.13-8.82.05-.2.33-1.35,1.23-1.76Z"/><path class="uuid-dbae29e5-ffaa-426e-a989-21b70ed1bebc" d="m613.74,195.27c.25,0,.52.01.82.04,3.6.29,6.88,2.1,8.53,3.85.23.24.57.62.76,1.21.32.99.07,2.11-.5,2.91-.78,1.1-2,1.35-2.54,1.46-.18.04-.4.07-.72.07-.69,0-1.79-.17-3.68-.9,0,0-5.43-2.1-6.63-4.87-.07-.16-.18-.42-.18-.75-.01-1.23,1.33-2.26,2.37-2.69.52-.22,1.05-.32,1.77-.32m0-1.85c-.95,0-1.71.14-2.47.46-1.63.68-3.53,2.24-3.51,4.41,0,.64.18,1.12.33,1.47,1.43,3.31,6.63,5.46,7.66,5.86,1.79.69,3.21,1.02,4.34,1.02.5,0,.86-.06,1.09-.11.67-.14,2.46-.51,3.67-2.19.94-1.32,1.23-3.06.75-4.54-.29-.9-.78-1.49-1.17-1.91-1.72-1.82-5.29-4.07-9.73-4.42-.35-.03-.67-.04-.96-.04h0Z"/><path class="uuid-dbae29e5-ffaa-426e-a989-21b70ed1bebc" d="m598.16,214.18c.94,0,1.95.64,2.62,1.08,3.54,2.3,6.37,4.55,6.99,5.03.96.75,7.09,5.54,8.92,7.78.38.47.79,1.09.63,1.68-.04.15-.24.74-1.55,1.18-.25.08-.85.27-1.86.27s-2.27-.17-4-.74c-.64-.22-2.96-1.03-5.61-2.96-1.31-.96-2.17-1.8-2.97-2.59-4.87-4.82-5.31-8.09-5.13-8.82.05-.2.33-1.35,1.23-1.76.23-.11.47-.15.72-.15m0-1.85c-.53,0-1.03.11-1.5.32-1.1.51-1.9,1.57-2.25,3-.37,1.5.41,5.41,5.63,10.57.77.76,1.73,1.71,3.18,2.77,2.59,1.89,4.94,2.83,6.11,3.22,1.66.56,3.21.84,4.58.84.91,0,1.73-.12,2.45-.37,1.89-.64,2.53-1.68,2.74-2.45.43-1.6-.63-2.9-.98-3.33-1.81-2.21-7.05-6.38-9.22-8.07l-.07-.06c-2.37-1.86-4.74-3.56-7.04-5.06-.74-.48-2.12-1.38-3.63-1.38h0Z"/><circle class="uuid-dbae29e5-ffaa-426e-a989-21b70ed1bebc" cx="577.88" cy="205.32" r="2.77"/><path class="uuid-6c20a5f3-4762-483b-8ab7-a822eb2f9d61" d="m564.44,272.53l1.23,1.65c1.62-.35,4.54-1.2,7.48-3.44,2.8-2.13,4.37-4.55,5.16-5.98l-1.33-1.79c-1.71.5-4.39,1.52-7.14,3.61-2.77,2.11-4.46,4.43-5.4,5.95Z"/><path class="uuid-a4182478-71cc-4cbe-887d-21769454e0e4" d="m549.63,251.51c1.33-1.37,3.01-2.9,5.05-4.41,2.23-1.64,4.35-2.85,6.18-3.75l15.46,20.75c-.65,1.18-1.87,3.03-3.99,4.68-2.74,2.13-5.52,2.79-6.93,3.03-5.26-6.77-10.51-13.54-15.77-20.3Z"/><path class="uuid-6c20a5f3-4762-483b-8ab7-a822eb2f9d61" d="m548.43,251.34c.4.06.8.12,1.2.18,1.41-1.46,3.22-3.1,5.46-4.71,2.07-1.49,4.05-2.6,5.77-3.44.02-.45.05-.89.07-1.34l-.92-1.24c-4.21,3.14-8.43,6.28-12.64,9.42.35.38.71.76,1.06,1.13Z"/><path class="uuid-f44c3984-bf7d-4687-8c60-b6c94c720206" d="m743,1983c-65.67-2-131.33-4-197-6-121.67-15.33-243.33-30.67-365-46C120.67,1948.33,60.33,1965.67,0,1983V773h743v1210Z"/></g><g id="uuid-e5481104-ad0c-47a6-b392-c50b1bc377a5"><g id="uuid-78933f8c-e98c-47b9-97ba-3b480f9c7209"><path class="uuid-55ca46d2-fc3d-4882-a514-c230dd9c90de" d="m664.08,239.37c-3.99-2.61-9.35-1.49-11.96,2.51s-1.49,9.35,2.51,11.96,9.35,1.49,11.96-2.51,1.49-9.35-2.51-11.96Zm-9.55,9.42c-.74-.52-.9-1.53-.39-2.26.52-.74,1.53-.9,2.26-.39s.9,1.53.39,2.26-1.53.9-2.26.39Zm3.16-4.72c-.75-.49-.96-1.5-.47-2.24s1.5-.96,2.24-.47.96,1.5.47,2.24-1.5.96-2.24.47Zm1.77,7.95c-.74-.52-.9-1.53-.39-2.26.52-.74,1.53-.9,2.26-.39.73.51.9,1.53.39,2.26-.52.74-1.53.9-2.26.39Zm3.11-4.76c-.74-.52-.9-1.53-.39-2.26.52-.74,1.53-.9,2.26-.39.73.51.9,1.53.39,2.26-.52.74-1.53.9-2.26.39Z"/><path class="uuid-9e7da419-8af2-459c-ad16-1b296dc70e42" d="m664.08,239.37c-3.99-2.61-9.35-1.49-11.96,2.51s-1.49,9.35,2.51,11.96,9.35,1.49,11.96-2.51,1.49-9.35-2.51-11.96Zm-8.47,12.97c-3.17-2.07-4.06-6.32-1.99-9.48s6.32-4.06,9.48-1.99,4.06,6.32,1.99,9.48c-2.07,3.16-6.32,4.06-9.48,1.99Z"/><path class="uuid-85972cd9-64d8-498a-83ea-84d2fbd5abae" d="m614.13,261.78c-4.09-2.67-9.17-2.11-11.36,1.25s-.66,8.24,3.42,10.91,9.17,2.11,11.36-1.25.66-8.24-3.42-10.91Zm-9,7.65c-.74-.52-.9-1.53-.39-2.26.52-.74,1.53-.9,2.26-.39s.9,1.53.39,2.26c-.52.74-1.53.9-2.26.39Zm2.81-4.3c-.74-.52-.9-1.53-.39-2.26.52-.74,1.53-.9,2.26-.39.74.52.9,1.53.39,2.26-.52.74-1.53.9-2.26.39Zm2.16,7.81c-.74-.52-.9-1.53-.39-2.26.52-.74,1.53-.9,2.26-.39.74.52.9,1.53.39,2.26-.51.73-1.53.9-2.26.39Zm2.81-4.3c-.74-.52-.9-1.53-.39-2.26.52-.74,1.53-.9,2.26-.39s.9,1.53.39,2.26c-.52.74-1.53.9-2.26.39Z"/><path class="uuid-39a33385-b4cc-4cfd-8204-a99b516a0a84" d="m614.01,261.7c-4.14-2.71-9.29-2.19-11.48,1.17s-.61,8.27,3.54,10.99,9.29,2.19,11.48-1.17.61-8.27-3.54-10.99Zm-7.27,11.12c-3.43-2.24-4.75-6.32-2.93-9.11s6.07-3.22,9.51-.98,4.75,6.32,2.93,9.11-6.07,3.22-9.51.98Z"/><path class="uuid-70eeaca9-848c-482c-a02f-f15d9387e720" d="m486,207.18c-4.11-2.68-9.61-1.52-12.29,2.58s-1.53,9.6,2.58,12.29c4.11,2.68,9.61,1.52,12.29-2.58s1.53-9.6-2.58-12.29Zm-10.35,9.93c-.92-.6-1.18-1.83-.58-2.76s1.83-1.18,2.76-.58,1.18,1.83.58,2.76-1.83,1.18-2.76.58Zm3.33-5.1c-.92-.6-1.18-1.83-.58-2.76s1.83-1.18,2.76-.58,1.18,1.83.58,2.76-1.83,1.18-2.76.58Zm2,8.59c-.92-.6-1.18-1.83-.58-2.76s1.83-1.18,2.76-.58,1.18,1.83.58,2.76-1.83,1.18-2.76.58Zm3.33-5.1c-.92-.6-1.18-1.83-.58-2.76s1.83-1.18,2.76-.58,1.18,1.83.58,2.76-1.83,1.18-2.76.58Z"/><path class="uuid-4c1b4f9f-6f41-4897-8083-1dd4db309a17" d="m486,207.18c-4.11-2.68-9.6-1.53-12.29,2.58-2.68,4.11-1.53,9.6,2.58,12.29,4.11,2.68,9.6,1.53,12.29-2.58s1.53-9.6-2.58-12.29Zm-9.09,13.91c-3.58-2.34-4.58-7.13-2.24-10.71s7.13-4.58,10.71-2.24c3.58,2.34,4.58,7.13,2.24,10.71s-7.13,4.58-10.71,2.24Z"/><path class="uuid-70eeaca9-848c-482c-a02f-f15d9387e720" d="m669.67,247.56c-3.4-2.22-7.94-1.26-10.16,2.13s-1.27,7.94,2.13,10.16,7.94,1.26,10.16-2.13c2.22-3.39,1.27-7.94-2.13-10.16Zm-8.56,8.21c-.76-.5-.98-1.52-.48-2.28s1.52-.98,2.28-.48.98,1.52.48,2.28-1.52.98-2.28.48Zm2.76-4.22c-.76-.5-.98-1.52-.48-2.28s1.52-.98,2.28-.48.98,1.52.48,2.28-1.52.98-2.28.48Zm1.65,7.1c-.76-.5-.98-1.52-.48-2.28s1.52-.98,2.28-.48.98,1.52.48,2.28-1.52.98-2.28.48Zm2.76-4.22c-.76-.5-.98-1.52-.48-2.28s1.52-.98,2.28-.48.98,1.52.48,2.28-1.52.98-2.28.48Z"/><path class="uuid-4c1b4f9f-6f41-4897-8083-1dd4db309a17" d="m669.67,247.56c-3.4-2.22-7.94-1.27-10.16,2.13s-1.27,7.94,2.13,10.16,7.94,1.27,10.16-2.13c2.22-3.4,1.27-7.94-2.13-10.16Zm-7.51,11.5c-2.96-1.93-3.79-5.89-1.86-8.85s5.89-3.79,8.85-1.86c2.96,1.93,3.79,5.89,1.86,8.85-1.93,2.96-5.89,3.79-8.85,1.86Z"/></g><path class="uuid-a4182478-71cc-4cbe-887d-21769454e0e4" d="m545.38,278.68c-3.08.62-6.44,1.94-7.83,5-.62,1.36-.65,2.87-1.05,4.29-.21.75-.55,1.44-1.14,1.97-.65.57-1.49.9-2.29,1.21-.59.23-.33,1.2.27.96,1.39-.54,2.79-1.16,3.57-2.5s.8-2.86,1.15-4.3c.85-3.56,4.32-5.01,7.59-5.67.63-.13.36-1.09-.27-.96h0Z"/><path class="uuid-a4182478-71cc-4cbe-887d-21769454e0e4" d="m547.26,279.3c1.92-.42,3.52.42,4.83,1.75,1.04,1.06,1.96,2.23,3.23,3.04,2.4,1.53,5.58,1.81,8.23.79.65-.25,1.27-.56,1.84-.96.69-.48,1.28-1.16,2.06-1.51,1.44-.65,3.48-.08,4.76.71,3.02,1.88,2.33,5.82-.03,7.94-1.42,1.27-3.25,1.96-5.06,2.43-2.13.56-4.31.88-6.5,1.03l.43.75c1.76-3.19,5.47-5.08,8.83-6.1,3.9-1.19,8.01-1.32,12.05-1.06,1.6.1,4.12.34,4.52-1.77.12-.63-.84-.9-.96-.27-.19.96-1.21,1.14-2.05,1.13-.99-.02-1.99-.13-2.98-.17-2.03-.08-4.07-.04-6.09.2-3.62.43-7.21,1.49-10.26,3.52-1.57,1.05-3,2.34-3.92,4.01-.17.31.04.78.43.75,2.08-.14,4.15-.43,6.17-.91,1.76-.42,3.53-1,5.04-2.02,2.62-1.76,4.52-5.36,2.81-8.39-.78-1.38-2.2-2.28-3.69-2.72-1.73-.5-3.48-.45-4.93.68-.69.54-1.33,1.09-2.11,1.48-.73.36-1.52.6-2.32.73-1.61.26-3.34.04-4.82-.64-1.77-.82-2.86-2.35-4.23-3.66-1.52-1.46-3.43-2.2-5.54-1.74-.63.14-.36,1.1.27.96h0v.02Z"/><path class="uuid-c789fdd6-ef34-4749-88a8-d918ed21206c" d="m548.99,276.85c-.43-1.26-.98-2.26-1.43-2.96-.98-4.48-2.45-10.83-4.49-18.43-.36-1.35-3.36-12.47-3.76-12.37-.36.09,1.55,9.24,2.35,13.08,1.59,7.62,3.07,13.89,4.14,18.26-.14.87-.24,2.08-.03,3.48.49,3.3,2.51,6.51,3.39,6.27.9-.24.91-4.16-.17-7.33Zm-.36,5.32c-.47.12-1.23-1.24-1.7-3.03-.47-1.8-.47-3.35,0-3.48.47-.12,1.23,1.24,1.7,3.03.47,1.8.47,3.35,0,3.48Z"/></g></svg>