<?xml version="1.0" encoding="UTF-8"?><svg id="Layer_11" xmlns="http://www.w3.org/2000/svg" width="2.12cm" height="3.25cm" viewBox="0 0 60.21 92.24"><defs><style>.cls-1{fill:#fcf5f0;}.cls-2{fill:silver;}.cls-3{fill:#d86238;}</style></defs><rect class="cls-2" x="17.43" y="28.25" width="1.7" height="14.38" rx=".85" ry=".85" transform="translate(-19.5 22.7) rotate(-44.08)"/><circle class="cls-3" cx="11.62" cy="28.55" r="5.85"/><rect class="cls-2" x="35.36" y="46.06" width="1.7" height="15.77" rx=".85" ry=".85" transform="translate(-27.33 40.38) rotate(-44.08)"/><path class="cls-1" d="m6.87,30.28c.83,1.97,2.94,2.91,3.13,2.7.21-.23-1.97-1.62-1.75-3.48.12-1.01.86-1.55.56-2.46-.13-.38-.46-.86-.87-.88-.53-.03-.94.68-1.05.87-.79,1.37-.1,3.07-.02,3.26Z"/></svg>