<?xml version="1.0" encoding="UTF-8"?><svg id="uuid-48f96268-7ce6-465a-9764-b1f4e332a2b8" xmlns="http://www.w3.org/2000/svg" width="157" height="157" viewBox="0 0 157 157"><defs><style>.uuid-795ebed6-339d-4717-91c3-561c4e4087a7{fill:#883228;}.uuid-795ebed6-339d-4717-91c3-561c4e4087a7,.uuid-f24afd43-f272-44bd-900c-37ce2b44fca3{stroke-width:0px;}.uuid-f24afd43-f272-44bd-900c-37ce2b44fca3{fill:#e2815a;}</style></defs><path class="uuid-f24afd43-f272-44bd-900c-37ce2b44fca3" d="m30.63,112.15v12c8.82,4.02,25.41,10.19,47,10,20.51-.19,36.3-6.03,45-10v-13c-9.78-3.62-25.81-8.2-46-8-20.28.21-36.29,5.16-46,9Z"/><path class="uuid-795ebed6-339d-4717-91c3-561c4e4087a7" d="m34.63,36.61c11.03-.95,24.18-1.65,39-1.6,16.13.05,30.31.98,42,2.14v80.74c-7.14,1.73-19.34,4.1-35,4.28-20.24.23-35.57-3.3-43-5.35l-3-80.21Z"/><path class="uuid-f24afd43-f272-44bd-900c-37ce2b44fca3" d="m30,34c1.67,1.67,3.33,3.33,5,5,11.69-1.9,25.88-3.3,42-3,14.88.28,28.02,1.94,39,4,1.67-2,3.33-4,5-6v-9H29c.33,3,.67,6,1,9Z"/></svg>