<svg width="39" height="37" viewBox="0 0 39 37" fill="none" xmlns="http://www.w3.org/2000/svg">
<rect x="0.374023" y="0.789307" width="38.2789" height="35.6925" rx="5" fill="#4B7B8F"/>
<rect x="2.44312" y="2.8584" width="34.1407" height="31.5543" rx="5" fill="#4B7B8F"/>
<rect x="15.3418" y="12.8787" width="5.75686" height="18.9976" rx="2.87843" fill="white"/>
<path d="M21.4879 14.0217L21.2594 14.3644C21.1546 14.5217 21.0986 14.7064 21.0986 14.8954V19.8944C21.0986 20.06 21.3308 20.0977 21.3832 19.9405C21.3854 19.934 21.388 19.9276 21.3911 19.9214L21.7253 19.2531C21.8828 18.9381 22.0731 18.6407 22.2931 18.3657L22.5378 18.0597L22.8421 17.7555C23.0219 17.5757 23.2295 17.4261 23.4569 17.3123C23.6113 17.2351 23.7737 17.1751 23.9412 17.1332L23.9606 17.1283C24.1627 17.0778 24.3703 17.0523 24.5786 17.0523H25.1284H25.8911C26.0539 17.0523 26.2163 17.0683 26.3759 17.1003L26.6694 17.159C26.7923 17.1835 26.9091 17.2319 27.0134 17.3015C27.1909 17.4198 27.3239 17.5939 27.3913 17.7963L27.4012 17.8259C27.4212 17.8857 27.4357 17.9472 27.4446 18.0096L27.5248 18.5715C27.5583 18.8057 27.5751 19.042 27.5751 19.2786V20.5064V23.3848V26.5511V28.8538V30.5809V31.1851C27.5751 31.3511 27.641 31.5104 27.7584 31.6278C27.8272 31.6965 27.9109 31.7482 28.0031 31.779L28.1188 31.8175C28.2353 31.8564 28.3573 31.8762 28.4801 31.8762H29.3022H30.5974H31.7073C31.8301 31.8762 31.9521 31.8564 32.0686 31.8175C32.2369 31.7614 32.3898 31.667 32.5152 31.5415L32.5273 31.5295C32.5839 31.4729 32.6347 31.4109 32.6791 31.3443L32.7405 31.2521C32.8446 31.096 32.9002 30.9125 32.9002 30.7248V30.293V28.8538V21.6577V17.6279V16.7376C32.9002 16.3728 32.8603 16.0091 32.7811 15.6529L32.7459 15.4945C32.6574 15.096 32.5094 14.7132 32.3069 14.3589L32.2438 14.2484C32.1063 14.0079 31.9374 13.7867 31.7415 13.5908C31.4611 13.3104 31.1298 13.0861 30.7653 12.9299L30.6056 12.8615C30.4086 12.777 30.2051 12.7085 29.9972 12.6565L29.7554 12.5961C29.3588 12.4969 28.9515 12.4468 28.5427 12.4468H27.5751H26.1359H24.8406L24.1892 12.5282C23.857 12.5697 23.5309 12.6501 23.2174 12.7676L23.1052 12.8097C22.7296 12.9505 22.3805 13.1536 22.0724 13.4103L21.9325 13.5269C21.7613 13.6696 21.6115 13.8363 21.4879 14.0217Z" fill="white"/>
<rect x="7.28223" y="12.8787" width="5.75686" height="18.9976" rx="2.87843" fill="white"/>
<circle cx="10.0167" cy="8.41712" r="2.73451" fill="white"/>
</svg>
