<?xml version="1.0" encoding="UTF-8"?><svg id="Layer_1" xmlns="http://www.w3.org/2000/svg" width="26.85cm" height="30.02cm" xmlns:xlink="http://www.w3.org/1999/xlink" viewBox="0 0 761.05 850.96"><defs><style>.cls-1,.cls-2,.cls-3,.cls-4,.cls-5,.cls-6,.cls-7{fill:none;}.cls-8{fill:url(#linear-gradient);}.cls-2{clip-path:url(#clippath-2);}.cls-3{clip-path:url(#clippath-1);}.cls-4{isolation:isolate;}.cls-9{fill:#f9d2d8;}.cls-10{fill:#eccec4;}.cls-11,.cls-12{fill:#f0eeea;}.cls-13{fill:#fff;}.cls-14{fill:silver;}.cls-15{fill:#cd4c30;}.cls-16{fill:#d8a29c;}.cls-17{fill:#3f6679;}.cls-18{fill:#2f3e49;}.cls-12{stroke:#3b1311;stroke-miterlimit:10;stroke-width:20px;}.cls-5{opacity:.05;}.cls-6{stroke:#cd4c30;stroke-dasharray:0 0 0 0 0 0 0 11.53;stroke-linecap:round;stroke-linejoin:round;stroke-width:4.94px;}.cls-19{fill:url(#linear-gradient-3);}.cls-20{fill:url(#linear-gradient-2);}.cls-7{clip-path:url(#clippath);}</style><clipPath id="clippath"><path class="cls-1" d="m2.4,183.01l327.02-87.01c143.01-14.33,286.02-28.67,429.03-43l3,285.02c-10.72,33.73-41.65,115.5-123.01,184.01-32.15,27.08-104.14,89.06-203.01,90.01-42.14.4-77.16-10.34-174.01-60C194.37,517.67,104.23,468,.4,400.03c.67-72.34,1.33-144.68,2-217.02Z"/></clipPath><clipPath id="clippath-1"><circle class="cls-1" cx="396.93" cy="382.53" r="196.51"/></clipPath><clipPath id="clippath-2"><rect class="cls-1" x="181.41" y="166.01" width="447.03" height="432.03"/></clipPath><linearGradient id="linear-gradient" x1="1177.61" y1="796.16" x2="1179.32" y2="678.43" gradientTransform="translate(1889.59 1044.89) rotate(163.72)" gradientUnits="userSpaceOnUse"><stop offset="0" stop-color="#fff"/><stop offset=".22" stop-color="#bfbfbf"/><stop offset=".47" stop-color="#7c7c7c"/></linearGradient><linearGradient id="linear-gradient-2" x1="224.89" y1="494.24" x2="418.57" y2="369.84" gradientTransform="translate(0 80.01)" gradientUnits="userSpaceOnUse"><stop offset=".08" stop-color="#eccec4"/><stop offset=".19" stop-color="#dfb2ab"/><stop offset=".28" stop-color="#d8a29c"/></linearGradient><linearGradient id="linear-gradient-3" x1="152.72" y1="428.97" x2="275.43" y2="391.33" gradientTransform="translate(0 80.01)" gradientUnits="userSpaceOnUse"><stop offset=".31" stop-color="#eccec4"/><stop offset=".42" stop-color="#eacac0"/><stop offset=".52" stop-color="#e5bfb6"/><stop offset=".61" stop-color="#ddada6"/><stop offset=".66" stop-color="#d8a29c"/></linearGradient></defs><g id="uuid-6d8fdf03-2c7a-44d4-abff-7f136376cc38"><g id="uuid-7761dce7-26c2-48eb-ad2b-8e73bd2ea150"><path class="cls-10" d="m458.3,586.04c12.67,44.67,25.33,89.34,38,134.01,16.27.89,49.55.49,86.01-17,29.92-14.35,48.97-33.98,59-46-31.33-54.67-62.67-109.34-94.01-164.01-2.04-.56-40.84-10.56-70,17-20.31,19.2-27.72,48.86-19,76.01Z"/><path class="cls-17" d="m754.18,850.96c-.97-2.01-1.92-3.98-2.86-5.9-30.63-62.94-58.21-109.29-76.01-139.01-20.68-34.55-39.11-63.1-53-84.01-2.74,11.32-7.66,27.33-17,45-2.52,4.77-10.4,19.67-19,29-27.02,29.29-78.94,22.78-91.01,21,10.93,42.48,21.13,87.15,30.25,133.91h228.63Z"/><path class="cls-18" d="m486.31,684.05c20.21,12.02,36.52,11.77,44,11,36.84-3.8,70.05-41.84,78.01-95.01,4.67,7.33,9.33,14.67,14,22-10.79,64.59-48.95,107.9-87.01,109.01-7.65.22-22.17-1.05-40-14l-9-33Z"/><path class="cls-11" d="m2,182.94l327.02-87.01c143.01-14.33,286.02-28.67,429.03-43l3,285.02c-10.72,33.73-41.65,115.5-123.01,184.01-32.15,27.08-104.14,89.06-203.01,90.01-42.14.4-77.16-10.34-174.01-60C193.97,517.6,103.83,467.93,0,399.96c.67-72.34,1.33-144.68,2-217.02h0Z"/><g class="cls-5"><g class="cls-7"><image class="cls-4" width="324" height="446" transform="translate(134.09 -90.43) scale(1.59 2.26)" xlink:href="../../../../../../../../../../../../Users/helenapfeffer/Documents/kea/09_indhold_2/itmv_web/public/Img/img_svg/Artboard 11.png"/></g></g><circle class="cls-12" cx="396.93" cy="382.53" r="207.51"/><path class="cls-14" d="m400.93,165.51c-15.67,1.33-31.33,2.67-47,4-.12-.26-.94-2.1,0-4,.6-1.22,1.61-1.8,2-2,12.33-1,24.67-2,37-3v-18h-52c-2.74,0-5-2.26-5-5s2.26-5,5-5h52v-2h8v2h4v-2h8v2h43.11c-.04-2.33-.07-4.67-.11-7,1.19-.69,3.66-1.89,7-2,3.91-.13,6.8,1.31,8,2,1.05,2.29,2.71,6.74,2.5,12.5-.17,4.69-1.51,8.34-2.5,10.5-1.2.7-3.26,1.69-6,2-4.04.45-7.17-.85-8.5-1.5v-7c-14.5.17-29,.33-43.5.5v18c12.67,1.67,25.33,3.33,38,5,.33.11,3.19,1.16,4,4,.36,1.27.16,2.39,0,3-16.67-2.33-33.33-4.67-50-7v-23h-4v23Z"/><g class="cls-5"><g class="cls-3"><g class="cls-2"><image class="cls-4" width="331" height="458" transform="translate(276.64 129.97) scale(.77 1.1)" xlink:href="../../../../../../../../../../../../Users/helenapfeffer/Documents/kea/09_indhold_2/itmv_web/public/Img/img_svg/Artboard 12.png"/></g></g></g><g id="uuid-bc5b73c8-8219-4700-8f5e-9ed9f41104a7"><path class="cls-6" d="m404.61,466.53c-29.1-29.65-58.2-59.3-87.32-88.96-14.43-23.02-7.65-53.68,14.83-68.36,22.83-14.92,54.18-8.34,69.19,14.83,15-23.91,47.48-30.18,70.01-14,22.53,16.19,26.95,48.99,9.06,70.84-5.77,6.59-11.53,14.83-17.3,21.41"/><path class="cls-14" d="m461.03,405.17c1.08.73,2.44.7,3.29,0,1.09-.91,1.24-2.85,0-4.12-21.26-36.63-32.24-54.75-32.95-54.36-.72.4,9.17,19.89,29.65,58.48h.01Z"/></g><path class="cls-15" d="m239.34,451.81l42.6-18.71,2.43,5.53-42.6,18.71-2.43-5.53Z"/><path class="cls-15" d="m233.1,412.23l2.15,14.07-5.05.77-5.24-34.26,5.05-.77,2.16,14.14,40.95-6.26.92,6.04-40.95,6.26h0Z"/><path class="cls-15" d="m225.74,378.62c-.3-3.1-.19-7.49.24-11.64.67-6.43,2.27-10.45,5.18-13.08,2.3-2.13,5.6-3.12,9.17-2.75,6.11.64,9.76,4.92,10.9,10l.21.02c1.61-3.46,5.13-5.26,10.05-5.87,6.61-.85,11.19-1.49,13.08-2.27l-.65,6.22c-1.38.62-5.47,1.25-11.38,1.96-6.53.72-9.19,2.96-9.96,8.39l-.59,5.67,20.05,2.08-.62,6.01-45.66-4.74h-.02,0Zm21.7-3.82l.64-6.15c.67-6.42-2.41-10.87-7.7-11.41-5.97-.62-9.03,3.46-9.76,9.81-.3,2.9-.24,5-.07,6l16.89,1.76h0Z"/><path class="cls-15" d="m234.09,307.17c3.19,1.31,4.6,4.97,3.08,8.69-1.61,3.92-5.19,5.38-8.25,4.12-3.19-1.31-4.81-4.83-3.18-8.81,1.61-3.92,5.16-5.31,8.36-4.01h0Zm-3.83,9.54c1.6.65,3.76.11,4.52-1.75.76-1.86-.27-3.71-2.12-4.47s-3.89-.17-4.65,1.7c-.82,1.99.4,3.77,2.25,4.53h0Zm34.78,19.82l11.7,10.05-2.37,5.79-37.02-32.37,2.77-6.75,49.11,2.87-2.45,5.98-15.44-.93-6.3,15.36h0Zm1.48-15.98l-14.13-.84c-3.21-.19-6.02-.59-8.78-.97l-.05.13c2.29,1.69,4.62,3.47,6.9,5.38l10.72,9.35,5.35-13.04h-.01Z"/><path class="cls-15" d="m256.28,283.54c1.96-3.17,4.48-6.77,7.58-10.42,5.62-6.62,11.14-10.04,16.69-10.71,5.59-.72,11.27.91,17.01,5.78,5.79,4.91,9,10.73,9.43,16.84.48,6.15-2.4,13.18-8.29,20.11-2.79,3.28-5.28,5.9-7.52,8.01l-34.9-29.61h0Zm35.28,22.01c1.2-.99,2.69-2.64,4.22-4.44,8.36-9.85,7.42-19.85-2.16-27.97-8.32-7.15-17.69-6.9-25.96,2.84-2.02,2.38-3.34,4.36-4.11,5.8l28,23.76h0Z"/><path class="cls-15" d="m358.76,239.06c-2.81-5.86-6.19-12.9-8.36-18.28l-.19.08c.62,5.65,1.05,11.75,1.34,18.58l1.04,24.02-4.23,1.76-15.5-17.55c-4.57-5.2-8.61-10.03-11.95-14.62l-.13.05c2.1,5.41,4.77,12.74,7.07,19.34l6.51,18.9-5.32,2.21-14.86-44.22,7.12-2.96,16.02,17.71c4,4.54,7.43,8.65,10.38,12.66l.19-.08c-.71-4.79-1.14-10.14-1.47-16.36l-.95-23.98,7.12-2.96,20.56,41.84-5.45,2.27-8.94-18.42h0Z"/><path class="cls-15" d="m401.86,232.17l-18.15,1.34,1.23,16.73,20.22-1.49.37,5.03-26.25,1.93-3.42-46.4,25.21-1.86.37,5.03-19.19,1.41,1.08,14.66,18.15-1.34.37,4.96h.01Z"/><path class="cls-15" d="m420.12,208.78c3.71.25,8.08.78,12.76,1.81,8.48,1.86,14.09,5.14,17.28,9.73,3.26,4.6,4.48,10.38,2.86,17.73-1.63,7.42-5.27,12.98-10.46,16.22-5.21,3.31-12.77,4.05-21.65,2.1-4.21-.92-7.69-1.9-10.6-2.89l9.82-44.71h-.01Zm-2.92,41.48c1.43.6,3.59,1.14,5.9,1.65,12.62,2.77,21.01-2.74,23.7-15.01,2.42-10.71-2.19-18.86-14.67-21.6-3.05-.67-5.42-.91-7.05-.91l-7.88,35.87h0Z"/><path class="cls-15" d="m470.32,275.21l13.88-46.96,5.37,3.71-7.03,23c-1.91,6.31-3.7,11.96-5.77,17.15l.11.08c4.15-3.68,9.08-7.4,14.25-11.22l19.58-14.41,5.31,3.67-40.22,28.77-5.49-3.79h.01Z"/><path class="cls-15" d="m522.9,294.97l-11.83-13.82-12.74,10.91,13.19,15.41-3.83,3.28-17.12-20,35.35-30.26,16.44,19.21-3.83,3.28-12.51-14.62-11.17,9.56,11.83,13.82-3.78,3.23h0Z"/><path class="cls-15" d="m551.6,294.93c1.9,2.48,4.13,6.26,5.95,10,2.83,5.81,3.6,10.07,2.52,13.84-.83,3.03-3.1,5.61-6.33,7.18-5.52,2.69-10.89.98-14.54-2.73l-.19.09c.47,3.79-1.57,7.18-5.42,10.29-5.16,4.22-8.71,7.18-9.9,8.84l-2.74-5.62c.84-1.26,3.99-3.95,8.62-7.68,5.16-4.06,6.24-7.37,4.02-12.39l-2.5-5.12-18.12,8.83-2.65-5.43,41.26-20.11h.02,0Zm-16.4,14.72l2.71,5.56c2.83,5.81,7.79,7.95,12.57,5.62,5.4-2.63,5.84-7.71,3.1-13.49-1.28-2.62-2.44-4.37-3.11-5.13l-15.26,7.44h-.01Z"/><path class="cls-15" d="m570.24,338.63c1.13,3.54,2.24,7.8,3.01,12.53,1.39,8.57.4,14.99-2.69,19.64-3.08,4.72-8.01,7.98-15.44,9.19-7.5,1.21-14.01-.12-18.93-3.76-4.99-3.62-8.47-10.38-9.92-19.36-.69-4.25-1.06-7.85-1.21-10.92l45.18-7.32h0Zm-39.65,12.55c-.03,1.55.26,3.76.64,6.09,2.07,12.75,10.28,18.53,22.68,16.52,10.85-1.69,16.73-8.97,14.68-21.59-.5-3.08-1.15-5.37-1.75-6.89l-36.25,5.88h0Z"/><path class="cls-15" d="m548.54,415.43l2.27-18.05-16.64-2.09-2.53,20.12-5-.63,3.28-26.12,46.17,5.79-3.15,25.08-5-.63,2.4-19.09-14.59-1.83-2.27,18.05-4.93-.62v.02h0Z"/><path class="cls-15" d="m525.79,419.49l42.71,18.46-2.62,6.06-27.56,4.43c-6.38,1.02-11.96,1.57-17.21,1.72v.16c5.93,1.96,11.18,4.07,17.84,6.95l17.87,7.72-2.26,5.23-42.71-18.46,2.42-5.61,27.57-4.28c6.05-.94,12.17-1.7,17.73-1.87l.02-.22c-5.52-2.01-10.71-4.1-17.81-7.17l-18.25-7.89,2.26-5.23Z"/><path class="cls-15" d="m497,501l13-12.73-11.74-11.99-14.49,14.19-3.52-3.6,18.81-18.42,32.55,33.24-18.07,17.69-3.53-3.6,13.75-13.46-10.29-10.51-13,12.73-3.48-3.55h.01Z"/><path class="cls-15" d="m480.38,495.62c-3.17-.06-7.29.74-10.89,2.84-5.34,3.12-6.82,7.74-4.46,11.79,2.19,3.76,5.6,4.64,12.28,3.54,7.96-1.53,14.02-.51,17.32,5.15,3.65,6.26,1.15,13.96-6.71,18.54-4.14,2.42-7.7,3.21-10.09,3.25l-1.03-5.07c1.74-.05,5.13-.44,8.79-2.57,5.52-3.22,5.7-7.73,4.1-10.47-2.19-3.76-5.73-4.17-12.56-3.06-8.37,1.37-13.76.12-17.21-5.78-3.62-6.2-2.13-14.26,7.41-19.83,3.9-2.28,8.82-3.63,11.81-3.46l1.22,5.12h.02Z"/><path class="cls-15" d="m450.8,547.21l13.73-3.77,1.35,4.93-33.42,9.17-1.35-4.93,13.8-3.79-10.96-39.95,5.89-1.62,10.96,39.95h0Z"/><path class="cls-15" d="m422.7,515.03c.35,2.53-1.12,4.55-3.53,4.88-2.41.34-4.31-1.21-4.66-3.74-.34-2.46.98-4.53,3.53-4.88,2.41-.34,4.32,1.28,4.66,3.74Z"/><path class="cls-15" d="m396.91,513.96l-.55,3.69-5.42,3.87c-13.01,9.09-19.02,14.06-20.09,20.74-.67,4.51.91,9,7.57,9.99,4.05.6,7.73-.94,10.04-2.34l1.29,4.52c-3.48,2.13-8.16,3.39-13.31,2.62-9.62-1.43-12.69-8.59-11.75-14.94,1.22-8.19,8.19-13.92,18.94-21.54l4.06-2.75.02-.14-20.06-2.99.74-4.98,28.51,4.25h0Z"/><path class="cls-15" d="m327.94,518.02c5.97-14.04,14.51-19.55,23.71-15.64,8.12,3.46,10.4,13.35,4.71,27.06-5.89,13.85-15.14,18.91-23.58,15.32-8.75-3.73-10.44-13.6-4.85-26.74h.01Zm22.83,8.97c4.57-10.73,3.84-18.25-1.27-20.42-5.75-2.45-11.34,3.05-15.82,13.6-4.32,10.16-4.54,17.95,1.27,20.42,4.92,2.09,11.04-2.35,15.82-13.59h0Z"/><path class="cls-15" d="m300.1,518.46l.11.08,8.79,1.44-1.88,4.39-11.02-1.84-4.13-3.17,27.32-35.6,4.68,3.59-23.87,31.11Z"/><path class="cls-15" d="m308.73,475.1l-2.94,2.3-6.6-.93c-15.69-2.36-23.47-2.89-28.84,1.22-3.59,2.81-5.54,7.15-1.39,12.46,2.52,3.23,6.25,4.63,8.9,5.21l-2.17,4.17c-3.99-.85-8.25-3.16-11.46-7.26-5.99-7.66-3.3-14.97,1.76-18.93,6.52-5.1,15.52-4.47,28.56-2.59l4.84.8.11-.08-12.5-15.98,3.97-3.1,17.76,22.71h0Z"/><path class="cls-8" d="m478.31,656.05c12.63,2.54,42.03,6.6,73.01-7,19.23-8.44,31.3-20.29,34-23,11-11.06,17.4-22.35,21-30,.21-.71,1.39-4.85-1-9-1.97-3.42-5.11-4.68-6-5-4.71,9.95-16.24,30.65-40,46-37.21,24.03-76.39,16.8-85.01,15-.4.21-3.63,1.94-4,5-.41,3.39,2.82,7.36,8,8Z"/></g><path class="cls-20" d="m185.41,331.02c-5.87,5.29-13.7,13.09-21.61,23.61-5.61,7.46-8.9,13.21-14,22-9.61,16.57-17.82,30.7-24,50-4.77,14.88-2.84,15.67-8,29-3,7.76-7.26,16.81-13,29-7.16,15.2-8.34,16.98-8,21,.72,8.45,6.99,12.81,18,24,6.13,6.23,14.65,15.51,24,28,11.13,18.16,19.75,33.47,26,45,3.77,6.97,7.25,13.6,10,23,1.83,6.27,3.78,15.25,4,28,.34,19.56-3.08,66.26-11,128.01,51.33-.33,102.68-.67,154.01-1l-9-123.01c4.16-6.15,9.9-16.31,13-30,3.85-17,1.75-31.2,0-39-25.52-14.49-54.37-35.86-80.01-67,0,0-49.33-59.85-61-137.01-3.17-20.97-1.39-39.61-1.39-39.61.58-6.06,1.42-10.95,2-14h0Z"/><path class="cls-16" d="m125.8,492.65c4.14-2.74,9.83-5.83,17-8,14.65-4.42,27.36-2.52,34-1-6.8.11-14.55.66-23,2-10.82,1.71-20.23,4.31-28,7Z"/><path class="cls-16" d="m128.8,465.64c3.18-3.12,10.2-9.14,21-12,14.26-3.77,26.02.39,30,2-6.25-.54-14.51-.63-24,1-11.58,1.99-20.74,5.8-27,9Z"/><path class="cls-19" d="m172.8,440.64c-1.09-2.8-5.34-12.7-8-27-1.27-6.82-1.67-11.93-2-16-.84-10.4-2.09-25.01-4-45,.97-2.23,3.01-5.94,7-8,7.43-3.84,16.07.86,20,3,2.66,1.45,8.27,4.93,16,16,6.05,8.68,15.84,22.7,17,42,.59,9.72-1.64,10.36-1,22,.65,11.9,3.55,21.53,6,28,6.21,6.63,14.54,16.32,23,29,13.95,20.91,20.89,38.89,27,55,6.97,18.39,10.54,27.81,12,42,1.67,16.22,3.32,32.36-5,43-14.99,19.16-60.63,18.23-86.01-3-31.59-26.44-32.24-84.77-26-117.01,3.2-16.55,11.71-44.23,4-64h0Z"/><path class="cls-9" d="m164.8,379.64c3.27-1.1,6.95-2.14,11-3,5.52-1.17,10.58-1.75,15-2,0-3.78-.27-8.17-1-13-.75-4.96-1.85-9.32-3-13-8.58-6.32-18.21-7.16-23-3-2.8,2.43-3.88,6.52-4,7-.93,3.66-.15,6.54,1,11,.85,3.29,2.2,8.58,4,16Z"/><path class="cls-13" d="m186.66,348.25c-7.54-6.84-17.44-7.55-23-3-4.07,3.33-4.72,8.6-4.86,10.38,1.17-2.33,3.6-6.1,8-8,3.1-1.33,5.91-1.2,10-1,4.2.2,7.59.97,9.86,1.62Z"/><path class="cls-17" d="m340.35,850.96c-7.22-28.58-12.74-55.69-16.93-80.91-10.57,5.72-30.17,14.22-55,13-57.38-2.82-89.06-54.95-92.01-60-6.97,34.12-13.2,71.22-18,111.01-.68,5.68-1.32,11.31-1.93,16.9h183.87Z"/><path class="cls-18" d="m177.41,691.05c7.08,10.92,19.34,26.46,39,39,43.98,28.07,91.09,19.53,103.01,17,1.67,8.67,3.33,17.33,5,26-9.47,4.16-43.49,17.72-85.01,6-38.17-10.77-59.41-36.36-66-45,1.33-14.33,2.67-28.67,4-43Z"/></g></svg>