<?xml version="1.0" encoding="UTF-8"?><svg xmlns="http://www.w3.org/2000/svg" width="7.98cm" height="6.76cm" xmlns:xlink="http://www.w3.org/1999/xlink" viewBox="0 0 226.15 191.54"><defs><style>.cls-1,.cls-2,.cls-3,.cls-4{fill:none;}.cls-2{isolation:isolate;}.cls-5{fill:#6697aa;}.cls-6{fill:#fcf5f0;}.cls-7{fill:#c2d8df;}.cls-8{fill:silver;}.cls-9{fill:#dfebed;}.cls-10{fill:#d86238;}.cls-3{mix-blend-mode:multiply;opacity:.3;}.cls-4{clip-path:url(#clippath);}</style><clipPath id="clippath"><circle class="cls-1" cx="125.28" cy="98.45" r="55.76"/></clipPath></defs><g class="cls-2"><g id="Layer_2"><circle class="cls-7" cx="65.63" cy="92.52" r="61.29"/><circle class="cls-9" cx="65.63" cy="92.52" r="47.62"/></g><g id="Layer_5"><rect class="cls-8" x="55.97" y="90.93" width="1.7" height="42.24" rx=".85" ry=".85" transform="translate(-56.17 166.97) rotate(-89.04)"/><circle class="cls-10" cx="34.59" cy="111.67" r="5.85"/><rect class="cls-8" x="55.7" y="60.44" width="1.7" height="42.24" rx=".85" ry=".85" transform="translate(-42.07 70.45) rotate(-48.84)"/><circle class="cls-10" cx="38.85" cy="66.08" r="5.85"/><path class="cls-6" d="m40.56,61.52c-1.99-.79-4.13.04-4.12.33.02.31,2.53-.26,3.71,1.2.63.79.5,1.71,1.36,2.13.36.18.93.28,1.24,0,.4-.35.18-1.14.12-1.36-.42-1.53-2.12-2.23-2.3-2.3Z"/></g><g id="Layer_3"><circle class="cls-7" cx="119.06" cy="97.7" r="62.46"/><g id="Layer_7"><circle class="cls-5" cx="125.28" cy="98.45" r="55.76"/></g><g class="cls-3"><g class="cls-4"><g id="yQFR04.tif"><image id="Layer_0" width="540" height="532" transform="translate(66.69 39.96) scale(.22)" xlink:href="Nolepude1.png"/></g></g></g></g><g id="Layer_4"><rect class="cls-8" x="83.35" y="37.21" width="1.7" height="42.24" rx=".85" ry=".85" transform="translate(-17.5 70.53) rotate(-41.55)"/><rect class="cls-8" x="129.88" y="30.55" width="1.7" height="42.24" rx=".85" ry=".85" transform="translate(18.38 -32.81) rotate(15.38)"/><rect class="cls-8" x="150.69" y="12.35" width="1.7" height="42.24" rx=".85" ry=".85" transform="translate(31.22 -64.55) rotate(26.71)"/><rect class="cls-8" x="176.46" y="43.36" width="1.7" height="42.24" rx=".85" ry=".85" transform="translate(173.54 -124.15) rotate(68.87)"/><rect class="cls-8" x="146.58" y="72.33" width="1.7" height="42.24" rx=".85" ry=".85" transform="translate(181.45 -77.76) rotate(68.87)"/><rect class="cls-8" x="188.86" y="77.33" width="1.7" height="42.24" rx=".85" ry=".85" transform="translate(288.17 -91.26) rotate(90)"/><rect class="cls-8" x="169.65" y="95.33" width="1.7" height="42.24" rx=".85" ry=".85" transform="translate(351.16 16.5) rotate(116.71)"/><rect class="cls-8" x="158.54" y="130.82" width="1.7" height="51.06" rx=".85" ry=".85" transform="translate(381.56 178.36) rotate(141.21)"/><rect class="cls-8" x="132.8" y="109.61" width="1.7" height="42.24" rx=".85" ry=".85" transform="translate(309.77 193.45) rotate(155.23)"/><rect class="cls-8" x="94.33" y="124.85" width="1.7" height="42.24" rx=".85" ry=".85" transform="translate(97.48 320.22) rotate(-147.65)"/><circle class="cls-10" cx="68.06" cy="40.56" r="5.85"/><circle class="cls-10" cx="83.49" cy="163.95" r="5.85"/><circle class="cls-10" cx="136.95" cy="30.53" r="5.85"/><circle class="cls-10" cx="141.58" cy="148.01" r="5.85"/><circle class="cls-10" cx="163.17" cy="9.45" r="5.85"/><circle class="cls-10" cx="162.15" cy="87.6" r="5.85"/><circle class="cls-10" cx="177.31" cy="179.11" r="5.85"/><circle class="cls-10" cx="190.94" cy="126.42" r="5.85"/><circle class="cls-10" cx="215.62" cy="99.3" r="5.85"/><circle class="cls-10" cx="195.56" cy="57.52" r="5.85"/><path class="cls-6" d="m134.47,26.57c-1.67,1.34-2,3.62-1.74,3.75.28.14,1.02-2.33,2.87-2.64,1-.16,1.73.41,2.52-.14.33-.23.7-.67.61-1.08-.11-.52-.91-.72-1.12-.77-1.54-.38-2.98.75-3.14.87Z"/><path class="cls-6" d="m195.53,52.86c-2.13.17-3.69,1.87-3.55,2.13.15.27,2.15-1.36,3.86-.57.92.43,1.2,1.31,2.16,1.3.4,0,.96-.16,1.11-.55.2-.49-.35-1.1-.5-1.27-1.06-1.18-2.88-1.06-3.09-1.04Z"/><path class="cls-6" d="m146.17,150.09c.78-1.99-.06-4.13-.35-4.12-.31.02.27,2.53-1.19,3.71-.79.64-1.71.5-2.12,1.37-.18.36-.27.93,0,1.24.36.4,1.14.17,1.36.11,1.53-.43,2.22-2.12,2.3-2.31Z"/><path class="cls-6" d="m181.51,180.97c.78-1.99-.06-4.13-.35-4.12-.31.02.27,2.53-1.19,3.71-.79.64-1.71.5-2.12,1.37-.18.36-.27.93,0,1.24.36.4,1.14.17,1.36.11,1.53-.43,2.22-2.12,2.3-2.31Z"/></g></g></svg>