<?xml version="1.0" encoding="UTF-8"?><svg id="uuid-52075b71-d5fe-4bbd-9ba2-70135a008fc7" xmlns="http://www.w3.org/2000/svg" width="159" height="67" viewBox="0 0 159 67"><defs><style>.uuid-38828a73-3676-4770-82de-eab016828c5d{fill:#cd4c30;}.uuid-38828a73-3676-4770-82de-eab016828c5d,.uuid-1e8d86fb-dcee-4609-bf81-2d6990088cbd,.uuid-75de441d-31ce-40a1-83aa-989d93bf0352{stroke-width:0px;}.uuid-1e8d86fb-dcee-4609-bf81-2d6990088cbd{fill:#fff;}.uuid-75de441d-31ce-40a1-83aa-989d93bf0352{fill:silver;}</style></defs><path class="uuid-75de441d-31ce-40a1-83aa-989d93bf0352" d="m5.15,62.22C51.17,44.6,97.19,26.99,143.21,9.37c1.45-.19,2.8.39,3.41,1.44.74,1.3.22,3.12-1.32,4.18C99,31.7,52.71,48.41,6.41,65.12c-.9.38-1.93.03-2.27-.76s.12-1.76,1.02-2.14Z"/><circle class="uuid-38828a73-3676-4770-82de-eab016828c5d" cx="148" cy="11" r="11"/><path class="uuid-1e8d86fb-dcee-4609-bf81-2d6990088cbd" d="m157.91,10.88c0-.27.07-5.96-4.53-8.8-3.02-1.87-6.17-1.35-6.97-1.18-.87,0-1.57.73-1.56,1.6s.73,1.57,1.6,1.56c1.11-.13,2.98-.2,5.07.57,4.27,1.58,6.03,5.41,6.4,6.25Z"/></svg>