<?xml version="1.0" encoding="UTF-8"?><svg id="uuid-c1f4d0a2-6eb7-47c0-98ae-32dc530ff0f4" xmlns="http://www.w3.org/2000/svg" width="159" height="67" viewBox="0 0 159 67"><defs><style>.uuid-cd74a5f4-e952-4eea-91aa-faa47892eaad{fill:#cd4c30;}.uuid-cd74a5f4-e952-4eea-91aa-faa47892eaad,.uuid-5ca75197-e387-49a5-8182-9cf5ae132111,.uuid-0d3bd74c-a1c0-4b45-9295-bd79402afff7{stroke-width:0px;}.uuid-5ca75197-e387-49a5-8182-9cf5ae132111{fill:#fff;}.uuid-0d3bd74c-a1c0-4b45-9295-bd79402afff7{fill:silver;}</style></defs><circle class="uuid-cd74a5f4-e952-4eea-91aa-faa47892eaad" cx="15.94" cy="55.52" r="11"/><path class="uuid-0d3bd74c-a1c0-4b45-9295-bd79402afff7" d="m149.22,2.22C105.96,18.39,62.7,34.55,19.44,50.72c-1.13.79-1.7,2.09-1.44,3.28.32,1.46,1.85,2.51,3.6,2.32C64.47,39.29,107.34,22.25,150.21,5.22c.87-.29,1.36-1.21,1.09-2.03s-1.21-1.26-2.08-.97Z"/><path class="uuid-5ca75197-e387-49a5-8182-9cf5ae132111" d="m9,48c.63-.64,2.69-2.56,6-3,2.92-.39,5.16.58,6,1,1.09.77,2.17,1.64,2,2-.06.14-.34.27-2,0-1.62-.26-2.42-.4-4-1-1.4-.54-3.78-.72-8,1Z"/></svg>