<svg width="15" height="900" viewBox="0 0 15 900" fill="none" xmlns="http://www.w3.org/2000/svg">
<rect x="1" y="1" width="13" height="898" stroke="#1C2730" stroke-width="2"/>
<path fill-rule="evenodd" clip-rule="evenodd" d="M0.856934 12.6395H10.7141V11.6395H0.856934V12.6395ZM5.99979 23.0309H0.856934V22.0309H5.99979V23.0309ZM0.856934 31.9772H5.99979V30.9772H0.856934V31.9772ZM0.856934 40.9234H5.99979V39.9234H0.856934V40.9234ZM5.99979 49.4332H0.856934V48.4332H5.99979V49.4332ZM0.856934 58.8159H5.99979V57.8159H0.856934V58.8159Z" fill="#1C2730"/>
<path fill-rule="evenodd" clip-rule="evenodd" d="M0.856934 454.327H10.7141V453.327H0.856934V454.327ZM5.99979 464.718H0.856934V463.718H5.99979V464.718ZM0.856934 473.665H5.99979V472.665H0.856934V473.665ZM0.856934 482.611H5.99979V481.611H0.856934V482.611ZM5.99979 491.121H0.856934V490.121H5.99979V491.121ZM0.856934 500.503H5.99979V499.503H0.856934V500.503Z" fill="#1C2730"/>
<path fill-rule="evenodd" clip-rule="evenodd" d="M0.856934 232.567H10.7141V231.567H0.856934V232.567ZM5.99979 242.958H0.856934V241.958H5.99979V242.958ZM0.856934 251.905H5.99979V250.905H0.856934V251.905ZM0.856934 260.851H5.99979V259.851H0.856934V260.851ZM5.99979 269.361H0.856934V268.361H5.99979V269.361ZM0.856934 278.743H5.99979V277.743H0.856934V278.743Z" fill="#1C2730"/>
<path fill-rule="evenodd" clip-rule="evenodd" d="M0.856934 674.254H10.7141V673.254H0.856934V674.254ZM5.99979 684.646H0.856934V683.646H5.99979V684.646ZM0.856934 693.592H5.99979V692.592H0.856934V693.592ZM0.856934 702.538H5.99979V701.538H0.856934V702.538ZM5.99979 711.048H0.856934V710.048H5.99979V711.048ZM0.856934 720.431H5.99979V719.431H0.856934V720.431Z" fill="#1C2730"/>
<path fill-rule="evenodd" clip-rule="evenodd" d="M0.856934 123.867H10.7141V122.867H0.856934V123.867ZM5.99979 134.259H0.856934V133.259H5.99979V134.259ZM0.856934 143.205H5.99979V142.205H0.856934V143.205ZM0.856934 152.151H5.99979V151.151H0.856934V152.151ZM5.99979 160.661H0.856934V159.661H5.99979V160.661ZM0.856934 170.044H5.99979V169.044H0.856934V170.044Z" fill="#1C2730"/>
<path fill-rule="evenodd" clip-rule="evenodd" d="M0.856934 565.555H10.7141V564.555H0.856934V565.555ZM5.99979 575.946H0.856934V574.946H5.99979V575.946ZM0.856934 584.892H5.99979V583.892H0.856934V584.892ZM0.856934 593.838H5.99979V592.838H0.856934V593.838ZM5.99979 602.348H0.856934V601.348H5.99979V602.348ZM0.856934 611.731H5.99979V610.731H0.856934V611.731Z" fill="#1C2730"/>
<path fill-rule="evenodd" clip-rule="evenodd" d="M0.856934 343.794H10.7141V342.794H0.856934V343.794ZM5.99979 354.186H0.856934V353.186H5.99979V354.186ZM0.856934 363.132H5.99979V362.132H0.856934V363.132ZM0.856934 372.078H5.99979V371.078H0.856934V372.078ZM5.99979 380.588H0.856934V379.588H5.99979V380.588ZM0.856934 389.971H5.99979V388.971H0.856934V389.971Z" fill="#1C2730"/>
<path fill-rule="evenodd" clip-rule="evenodd" d="M0.856934 785.482H10.7141V784.482H0.856934V785.482ZM5.99979 795.873H0.856934V794.873H5.99979V795.873ZM0.856934 804.819H5.99979V803.819H0.856934V804.819ZM0.856934 813.766H5.99979V812.766H0.856934V813.766ZM5.99979 822.276H0.856934V821.276H5.99979V822.276ZM0.856934 831.658H5.99979V830.658H0.856934V831.658Z" fill="#1C2730"/>
<path fill-rule="evenodd" clip-rule="evenodd" d="M0.856934 68.2533H10.7141V67.2533H0.856934V68.2533ZM5.99979 78.6447H0.856934V77.6447H5.99979V78.6447ZM0.856934 87.591H5.99979V86.591H0.856934V87.591ZM0.856934 96.5372H5.99979V95.5372H0.856934V96.5372ZM5.99979 105.047H0.856934V104.047H5.99979V105.047ZM0.856934 114.43H5.99979V113.43H0.856934V114.43Z" fill="#1C2730"/>
<path fill-rule="evenodd" clip-rule="evenodd" d="M0.856934 509.941H10.7141V508.941H0.856934V509.941ZM5.99979 520.332H0.856934V519.332H5.99979V520.332ZM0.856934 529.278H5.99979V528.278H0.856934V529.278ZM0.856934 538.225H5.99979V537.225H0.856934V538.225ZM5.99979 546.734H0.856934V545.734H5.99979V546.734ZM0.856934 556.117H5.99979V555.117H0.856934V556.117Z" fill="#1C2730"/>
<path fill-rule="evenodd" clip-rule="evenodd" d="M0.856934 288.181H10.7141V287.181H0.856934V288.181ZM5.99979 298.572H0.856934V297.572H5.99979V298.572ZM0.856934 307.518H5.99979V306.518H0.856934V307.518ZM0.856934 316.465H5.99979V315.465H0.856934V316.465ZM5.99979 324.974H0.856934V323.974H5.99979V324.974ZM0.856934 334.357H5.99979V333.357H0.856934V334.357Z" fill="#1C2730"/>
<path fill-rule="evenodd" clip-rule="evenodd" d="M0.856934 729.868H10.7141V728.868H0.856934V729.868ZM5.99979 740.259H0.856934V739.259H5.99979V740.259ZM0.856934 749.206H5.99979V748.206H0.856934V749.206ZM0.856934 758.152H5.99979V757.152H0.856934V758.152ZM5.99979 766.662H0.856934V765.662H5.99979V766.662ZM0.856934 776.044H5.99979V775.044H0.856934V776.044Z" fill="#1C2730"/>
<path fill-rule="evenodd" clip-rule="evenodd" d="M0.856934 179.481H10.7141V178.481H0.856934V179.481ZM5.99979 189.872H0.856934V188.872H5.99979V189.872ZM0.856934 198.819H5.99979V197.819H0.856934V198.819ZM0.856934 207.765H5.99979V206.765H0.856934V207.765ZM5.99979 216.275H0.856934V215.275H5.99979V216.275ZM0.856934 225.657H5.99979V224.657H0.856934V225.657Z" fill="#1C2730"/>
<path fill-rule="evenodd" clip-rule="evenodd" d="M0.856934 621.168H10.7141V620.168H0.856934V621.168ZM5.99979 631.56H0.856934V630.56H5.99979V631.56ZM0.856934 640.506H5.99979V639.506H0.856934V640.506ZM0.856934 649.452H5.99979V648.452H0.856934V649.452ZM5.99979 657.962H0.856934V656.962H5.99979V657.962ZM0.856934 667.345H5.99979V666.345H0.856934V667.345Z" fill="#1C2730"/>
<path fill-rule="evenodd" clip-rule="evenodd" d="M0.856934 399.408H10.7141V398.408H0.856934V399.408ZM5.99979 409.8H0.856934V408.8H5.99979V409.8ZM0.856934 418.746H5.99979V417.746H0.856934V418.746ZM0.856934 427.692H5.99979V426.692H0.856934V427.692ZM5.99979 436.202H0.856934V435.202H5.99979V436.202ZM0.856934 445.585H5.99979V444.585H0.856934V445.585Z" fill="#1C2730"/>
<path fill-rule="evenodd" clip-rule="evenodd" d="M0.856934 841.096H10.7141V840.096H0.856934V841.096ZM5.99979 851.487H0.856934V850.487H5.99979V851.487ZM0.856934 860.433H5.99979V859.433H0.856934V860.433ZM0.856934 869.38H5.99979V868.38H0.856934V869.38ZM5.99979 877.889H0.856934V876.889H5.99979V877.889ZM0.856934 887.272H5.99979V886.272H0.856934V887.272Z" fill="#1C2730"/>
</svg>
