<svg width="35" height="900" viewBox="0 0 35 900" fill="none" xmlns="http://www.w3.org/2000/svg">
<rect x="1" y="1" width="33" height="898" stroke="#1C2730" stroke-width="2"/>
<path fill-rule="evenodd" clip-rule="evenodd" d="M2 12.6395H25V11.6395H2V12.6395ZM14 23.0309H2V22.0309H14V23.0309ZM2 31.9772H14V30.9772H2V31.9772ZM2 40.9234H14V39.9234H2V40.9234ZM14 49.4332H2V48.4332H14V49.4332ZM2 58.8159H14V57.8159H2V58.8159Z" fill="#1C2730"/>
<path fill-rule="evenodd" clip-rule="evenodd" d="M2 454.327H25V453.327H2V454.327ZM14 464.718H2V463.718H14V464.718ZM2 473.665H14V472.665H2V473.665ZM2 482.611H14V481.611H2V482.611ZM14 491.121H2V490.121H14V491.121ZM2 500.503H14V499.503H2V500.503Z" fill="#1C2730"/>
<path fill-rule="evenodd" clip-rule="evenodd" d="M2 232.567H25V231.567H2V232.567ZM14 242.958H2V241.958H14V242.958ZM2 251.905H14V250.905H2V251.905ZM2 260.851H14V259.851H2V260.851ZM14 269.361H2V268.361H14V269.361ZM2 278.743H14V277.743H2V278.743Z" fill="#1C2730"/>
<path fill-rule="evenodd" clip-rule="evenodd" d="M2 674.254H25V673.254H2V674.254ZM14 684.646H2V683.646H14V684.646ZM2 693.592H14V692.592H2V693.592ZM2 702.538H14V701.538H2V702.538ZM14 711.048H2V710.048H14V711.048ZM2 720.431H14V719.431H2V720.431Z" fill="#1C2730"/>
<path fill-rule="evenodd" clip-rule="evenodd" d="M2 123.867H25V122.867H2V123.867ZM14 134.259H2V133.259H14V134.259ZM2 143.205H14V142.205H2V143.205ZM2 152.151H14V151.151H2V152.151ZM14 160.661H2V159.661H14V160.661ZM2 170.044H14V169.044H2V170.044Z" fill="#1C2730"/>
<path fill-rule="evenodd" clip-rule="evenodd" d="M2 565.555H25V564.555H2V565.555ZM14 575.946H2V574.946H14V575.946ZM2 584.892H14V583.892H2V584.892ZM2 593.838H14V592.838H2V593.838ZM14 602.348H2V601.348H14V602.348ZM2 611.731H14V610.731H2V611.731Z" fill="#1C2730"/>
<path fill-rule="evenodd" clip-rule="evenodd" d="M2 343.794H25V342.794H2V343.794ZM14 354.186H2V353.186H14V354.186ZM2 363.132H14V362.132H2V363.132ZM2 372.078H14V371.078H2V372.078ZM14 380.588H2V379.588H14V380.588ZM2 389.971H14V388.971H2V389.971Z" fill="#1C2730"/>
<path fill-rule="evenodd" clip-rule="evenodd" d="M2 785.482H25V784.482H2V785.482ZM14 795.873H2V794.873H14V795.873ZM2 804.819H14V803.819H2V804.819ZM2 813.766H14V812.766H2V813.766ZM14 822.276H2V821.276H14V822.276ZM2 831.658H14V830.658H2V831.658Z" fill="#1C2730"/>
<path fill-rule="evenodd" clip-rule="evenodd" d="M2 68.2533H25V67.2533H2V68.2533ZM14 78.6447H2V77.6447H14V78.6447ZM2 87.591H14V86.591H2V87.591ZM2 96.5372H14V95.5372H2V96.5372ZM14 105.047H2V104.047H14V105.047ZM2 114.43H14V113.43H2V114.43Z" fill="#1C2730"/>
<path fill-rule="evenodd" clip-rule="evenodd" d="M2 509.941H25V508.941H2V509.941ZM14 520.332H2V519.332H14V520.332ZM2 529.278H14V528.278H2V529.278ZM2 538.225H14V537.225H2V538.225ZM14 546.734H2V545.734H14V546.734ZM2 556.117H14V555.117H2V556.117Z" fill="#1C2730"/>
<path fill-rule="evenodd" clip-rule="evenodd" d="M2 288.181H25V287.181H2V288.181ZM14 298.572H2V297.572H14V298.572ZM2 307.518H14V306.518H2V307.518ZM2 316.465H14V315.465H2V316.465ZM14 324.974H2V323.974H14V324.974ZM2 334.357H14V333.357H2V334.357Z" fill="#1C2730"/>
<path fill-rule="evenodd" clip-rule="evenodd" d="M2 729.868H25V728.868H2V729.868ZM14 740.259H2V739.259H14V740.259ZM2 749.206H14V748.206H2V749.206ZM2 758.152H14V757.152H2V758.152ZM14 766.662H2V765.662H14V766.662ZM2 776.044H14V775.044H2V776.044Z" fill="#1C2730"/>
<path fill-rule="evenodd" clip-rule="evenodd" d="M2 179.481H25V178.481H2V179.481ZM14 189.872H2V188.872H14V189.872ZM2 198.819H14V197.819H2V198.819ZM2 207.765H14V206.765H2V207.765ZM14 216.275H2V215.275H14V216.275ZM2 225.657H14V224.657H2V225.657Z" fill="#1C2730"/>
<path fill-rule="evenodd" clip-rule="evenodd" d="M2 621.168H25V620.168H2V621.168ZM14 631.56H2V630.56H14V631.56ZM2 640.506H14V639.506H2V640.506ZM2 649.452H14V648.452H2V649.452ZM14 657.962H2V656.962H14V657.962ZM2 667.345H14V666.345H2V667.345Z" fill="#1C2730"/>
<path fill-rule="evenodd" clip-rule="evenodd" d="M2 399.408H25V398.408H2V399.408ZM14 409.8H2V408.8H14V409.8ZM2 418.746H14V417.746H2V418.746ZM2 427.692H14V426.692H2V427.692ZM14 436.202H2V435.202H14V436.202ZM2 445.585H14V444.585H2V445.585Z" fill="#1C2730"/>
<path fill-rule="evenodd" clip-rule="evenodd" d="M2 841.096H25V840.096H2V841.096ZM14 851.487H2V850.487H14V851.487ZM2 860.433H14V859.433H2V860.433ZM2 869.38H14V868.38H2V869.38ZM14 877.889H2V876.889H14V877.889ZM2 887.272H14V886.272H2V887.272Z" fill="#1C2730"/>
</svg>
