<?xml version="1.0" encoding="UTF-8"?><svg id="uuid-e5c0f3a1-aaa6-4a86-9949-6611fcb812ca" xmlns="http://www.w3.org/2000/svg" width="797" height="376" viewBox="0 0 797 376"><defs><style>.uuid-0ba1a137-1659-44e2-a710-7f7c55a68ad8{fill:#999;}.uuid-0ba1a137-1659-44e2-a710-7f7c55a68ad8,.uuid-138bbb55-6260-409b-b3bd-28ce22de344c,.uuid-583e4cec-05a5-4399-9981-863b455b5e92,.uuid-4faa7196-b68a-43ba-9560-6845fc251c29,.uuid-ac3cfa36-e48d-4a2f-ba6a-bc89b2d6d2da{stroke-width:0px;}.uuid-138bbb55-6260-409b-b3bd-28ce22de344c{fill:#cd4c30;}.uuid-583e4cec-05a5-4399-9981-863b455b5e92{fill:#aa3a29;}.uuid-4faa7196-b68a-43ba-9560-6845fc251c29{fill:silver;}.uuid-ac3cfa36-e48d-4a2f-ba6a-bc89b2d6d2da{fill:#314e5b;}</style></defs><path class="uuid-4faa7196-b68a-43ba-9560-6845fc251c29" d="m359.19,265.26c-35.36-8.92-71.38-18.57-108-29-72.87-20.76-142.23-42.96-208-66,.3-1.45,1.04-3.85,3-6,4.77-5.25,12.29-4.12,13-4,60.7,5.13,124.5,12.59,191,23,33.26,5.21,65.6,10.91,97,17,4,21.67,8,43.33,12,65Z"/><path class="uuid-138bbb55-6260-409b-b3bd-28ce22de344c" d="m340.18,272c37.67-1.33,75.33-2.67,113-4,7.02-14.64,18.08-34.66,35-56,16.74-21.11,29.36-37.01,52-50,27.61-15.83,55.98-19.32,78-22,11.86-1.44,21.86-1.88,29-2,2,4.33,4,8.67,6,13,11,0,22,0,33,0,2.67-4.33,5.33-8.67,8-13,7.14-.95,23.23-4.11,37-17,15.81-14.79,26.98-41.02,18-63-5.98-14.64-18.61-21.81-26-26-37.21-21.12-80.76-6.46-94-2-23.4,7.88-37.94,18.86-58,34-34.66,26.17-56.31,52.88-78,80-16.81,21.02-29.76,39.77-39,54-29,1.67-58,3.33-87,5-4.39,7.25-8.86,15.59-13,25-7.15,16.25-11.4,31.33-14,44Zm263-190c1.47-3.31,4.17-8.3,9-13,5.19-5.05,10.81-7.78,17-10,25.79-9.25,54.11-6.96,71,0,2.35.97,5.85,2.59,9,6,5.33,5.77,7.49,14.33,6,22-1.95,10.02-9.55,15.51-13,18-6.63,4.79-15.07,7.73-33,8-14.15.21-57.45.85-65-18-2.58-6.44-1-13-1-13Z"/><path class="uuid-583e4cec-05a5-4399-9981-863b455b5e92" d="m353.75,228c4.14-9.41,8.61-17.75,13-25,29-1.67,58-3.33,87-5,4.76-7.33,10.51-15.86,17.26-25.28,4.91,3.65,8.97,8.24,11.43,14.76,2.99,7.92,4.64,17.53,3.75,26.52-16.03,20.58-26.64,39.81-33.43,53.99-37.67,1.33-75.33,2.67-113,4,2.6-12.67,6.85-27.75,14-44Z"/><path class="uuid-4faa7196-b68a-43ba-9560-6845fc251c29" d="m345.18,272c-43.6,1.8-89.33,2.58-137,2-56.48-.68-110.24-3.19-161-7-1.31-.3-6.05-1.53-9-6-1.23-1.86-1.76-3.7-2-5,57.62-12.2,118.34-23.06,182-32,24.03-3.37,47.7-6.36,71-9,17.67.67,35.33,1.33,53,2,1.67,13.33,3.33,26.67,5,40-.67,5-1.33,10-2,15Z"/><path class="uuid-0ba1a137-1659-44e2-a710-7f7c55a68ad8" d="m359.18,265c-35.36-8.92-71.38-18.57-108-29-72.87-20.76-142.23-42.96-208-66,2.32-.85,5.36-1.69,9-2,6.55-.56,11.85.87,15,2,65.33,17.67,130.67,35.33,196,53,30.33,7.67,60.67,15.33,91,23,1.67,6.33,3.33,12.67,5,19Z"/><path class="uuid-138bbb55-6260-409b-b3bd-28ce22de344c" d="m344.18,240c4.4,13.41,11.13,23.09,16,29,40.67,8.67,81.33,17.33,122,26,14.67-3,29.33-6,44-9,35.12,23.6,66.98,37.58,90,46,30.57,11.18,56.46,20.34,91,18,16.32-1.11,57.41-3.9,75-32,2.04-3.26,10.45-16.69,7-32-2.83-12.59-12.35-20.48-20-26-27.86-20.09-56.14-26.8-102-40-47.44-13.66-56.29-17.73-77-17-19.48.69-33.33,1.18-48,10-10.72,6.44-34.98,25.22-55,42-1.77,1.48-5.69,4.78-10,4-1.96-.36-6.32-1.98-14-22-2.16-5.63-4.71-13.05-7-22-38.33-6.33-76.67-12.67-115-19-1.5,8.4-3.26,24.93,3,44Zm226,4c6.02-6.94,18.39-5.18,26-4,31.64,4.91,58.23,11.58,64,13,0,0,58.59,14.41,86,26,2.76,1.17,8.88,3.87,10,9,1.17,5.37-3.75,10.64-6,13-4.8,5.01-15.19,13.2-42,16-11.71,1.22-29.46,1.73-51-3-5.85-1.62-15.46-4.5-27-9-26.74-10.43-58.89-22.98-63-45-.28-1.52-1.93-10.33,3-16Z"/><path class="uuid-ac3cfa36-e48d-4a2f-ba6a-bc89b2d6d2da" d="m665.81,53.23c13.43,0,25.74,2.39,34.77,6.11,2.31.95,5.87,2.54,9,6,5.29,5.84,7.04,14.36,5.6,21.66-1.99,10.04-9.61,15.55-13,18-3.48,2.51-10.56,6.76-33,8,0,0-2.55.14-6.66.14-12.98,0-41.5-1.41-54.34-13.14-.96-.88-2.52-2.32-3.6-4.66-3.93-8.48,2.16-19.79,8-26,3.96-4.21,8.7-7.02,17-10,12-4.3,24.54-6.11,36.23-6.11m0-14c-14.15,0-28.31,2.4-40.95,6.93-10.38,3.72-16.89,7.66-22.47,13.58-9.19,9.76-17.45,26.48-10.51,41.48,2.28,4.93,5.49,7.86,6.86,9.11,15.2,13.89,43.07,16.81,63.78,16.81,4.37,0,7.14-.15,7.44-.16,24.54-1.36,34.21-6.14,40.43-10.63,4.23-3.06,15.47-11.18,18.53-26.62,2.4-12.09-1.03-25.04-8.95-33.78-5.43-6-11.69-8.58-14.04-9.55-11.21-4.62-25.46-7.16-40.1-7.16h0Z"/><path class="uuid-ac3cfa36-e48d-4a2f-ba6a-bc89b2d6d2da" d="m585.17,239.23c4.09,0,8.18.6,11.41,1.11,31.64,4.91,58.23,11.58,64,13,8.97,2.18,66.33,16.2,86,26,4.09,2.03,8.86,5.04,9.6,9.66.18,1.15.67,5.85-7,13-2.87,2.67-13.8,12.14-42,15-2.21.22-6.92.65-13.52.65-8.69,0-20.65-.74-34.48-3.65-12.04-2.53-20.61-5.69-28.6-8.66-48.72-18.14-61.96-39.42-63-45-.28-1.52-1.93-10.33,3-16,3.47-3.99,9.04-5.11,14.59-5.11m0-14c-10.97,0-19.44,3.34-25.16,9.93-6.03,6.95-8.23,16.8-6.19,27.75,1.41,7.56,8.04,16.96,18.2,25.79,13.05,11.35,31.11,21.36,53.68,29.76,7.7,2.87,17.29,6.44,30.6,9.24,12.45,2.62,25.03,3.95,37.37,3.95,5.18,0,10.2-.24,14.93-.72,27.89-2.82,42.66-11.72,50.13-18.69,11.04-10.29,12.23-19.52,11.28-25.46-1.99-12.41-13.42-18.11-17.18-19.98-19.39-9.66-68.66-22.15-88.94-27.07l-.68-.17c-22.17-5.47-43.86-9.86-64.47-13.06-3.97-.62-8.61-1.27-13.56-1.27h0Z"/><circle class="uuid-ac3cfa36-e48d-4a2f-ba6a-bc89b2d6d2da" cx="407.18" cy="243" r="21"/></svg>