<?xml version="1.0" encoding="UTF-8"?><svg id="Layer_1" xmlns="http://www.w3.org/2000/svg" width="7.36cm" height="1.69cm" viewBox="0 0 208.73 47.91"><defs><style>.cls-1{fill:#82623b;}.cls-2{fill:#c8af8e;}.cls-3{fill:#83633b;}</style></defs><g id="Layer_18"><path class="cls-2" d="m203.12,15.69H5.46c-3.02,0-5.46,3.68-5.46,8.23s2.45,8.23,5.46,8.23h197.66c3.1,0,5.61-3.68,5.61-8.23s-2.51-8.23-5.61-8.23h0Z"/></g><g id="Layer_19"><ellipse class="cls-1" cx="5.55" cy="23.93" rx="4.68" ry="7.09"/><path class="cls-3" d="m27.82,15.69c.42.52,3.54,4.54,2.36,9.78-.89,3.94-3.66,6.11-4.44,6.67h-1.92c.58-.35,4.53-2.82,5.24-7.51.64-4.21-1.72-7.64-2.3-8.48-.14-.2-.25-.35-.33-.46h1.4,0Z"/><path class="cls-3" d="m47.59,15.69c.42.52,3.54,4.54,2.36,9.78-.89,3.94-3.66,6.11-4.44,6.67h-1.92c.58-.35,4.53-2.82,5.24-7.51.64-4.21-1.72-7.64-2.3-8.48-.14-.2-.25-.35-.33-.46h1.4-.01Z"/><path class="cls-3" d="m67.14,15.69c.42.52,3.54,4.54,2.36,9.78-.89,3.94-3.66,6.11-4.44,6.67h-1.92c.58-.35,4.53-2.82,5.24-7.51.64-4.21-1.72-7.64-2.3-8.48-.14-.2-.25-.35-.33-.46h1.4,0Z"/><path class="cls-3" d="m86.86,15.71c.42.52,3.54,4.54,2.36,9.78-.89,3.94-3.66,6.11-4.44,6.67h-1.92c.58-.35,4.53-2.82,5.24-7.51.64-4.21-1.72-7.64-2.3-8.48-.14-.2-.25-.35-.33-.46h1.4,0Z"/><path class="cls-3" d="m106.34,15.69c.42.52,3.54,4.54,2.36,9.78-.89,3.94-3.66,6.11-4.44,6.67h-1.92c.58-.35,4.53-2.82,5.24-7.51.64-4.21-1.72-7.64-2.3-8.48-.14-.2-.25-.35-.33-.46h1.4,0Z"/><path class="cls-3" d="m125.94,15.69c.42.52,3.54,4.54,2.36,9.78-.89,3.94-3.66,6.11-4.44,6.67h-1.92c.58-.35,4.53-2.82,5.24-7.51.64-4.21-1.72-7.64-2.3-8.48-.14-.2-.25-.35-.33-.46h1.4,0Z"/><path class="cls-3" d="m145.54,15.69c.42.52,3.54,4.54,2.36,9.78-.89,3.94-3.66,6.11-4.44,6.67h-1.92c.58-.35,4.53-2.82,5.24-7.51.64-4.21-1.72-7.64-2.3-8.48-.14-.2-.25-.35-.33-.46h1.4,0Z"/><path class="cls-3" d="m165.13,15.69c.42.52,3.54,4.54,2.36,9.78-.89,3.94-3.66,6.11-4.44,6.67h-1.92c.58-.35,4.53-2.82,5.24-7.51.64-4.21-1.72-7.64-2.3-8.48-.14-.2-.25-.35-.33-.46h1.4,0Z"/><path class="cls-3" d="m184.73,15.69c.42.52,3.54,4.54,2.36,9.78-.89,3.94-3.66,6.11-4.44,6.67h-1.92c.58-.35,4.53-2.82,5.24-7.51.64-4.21-1.72-7.64-2.3-8.48-.14-.2-.25-.35-.33-.46h1.4,0Z"/><path class="cls-3" d="m202.64,15.69c.42.52,3.54,4.54,2.36,9.78-.89,3.94-3.66,6.11-4.44,6.67h-1.92c.58-.35,4.53-2.82,5.24-7.51.64-4.21-1.72-7.64-2.3-8.48-.14-.2-.25-.35-.33-.46h1.4,0Z"/></g></svg>