<?xml version="1.0" encoding="UTF-8"?><svg id="uuid-93b90832-0de3-41b7-8a9d-243dff95e243" xmlns="http://www.w3.org/2000/svg" width="141.47" height="218.93" viewBox="0 0 141.47 218.93"><defs><style>.uuid-873efdb2-96f0-4ca6-8954-64637604d1e0{fill:#883228;}.uuid-873efdb2-96f0-4ca6-8954-64637604d1e0,.uuid-7785aba4-0baa-4bfd-8923-01f8411ef5fa{stroke-width:0px;}.uuid-7785aba4-0baa-4bfd-8923-01f8411ef5fa{fill:#e2815a;}</style></defs><path class="uuid-7785aba4-0baa-4bfd-8923-01f8411ef5fa" d="m19.47,186v12c8.82,4.02,25.41,10.19,47,10,20.51-.19,36.3-6.03,45-10v-13c-9.78-3.62-25.81-8.2-46-8-20.28.21-36.29,5.16-46,9Z"/><path class="uuid-873efdb2-96f0-4ca6-8954-64637604d1e0" d="m23.47,36c11.03-1.77,24.18-3.09,39-3,16.13.09,30.31,1.82,42,4v151c-7.14,3.24-19.34,7.66-35,8-20.24.44-35.57-6.17-43-10l-3-150Z"/><path class="uuid-7785aba4-0baa-4bfd-8923-01f8411ef5fa" d="m18.47,31c1.67,1.67,3.33,3.33,5,5,11.69-1.9,25.88-3.3,42-3,14.88.28,28.02,1.94,39,4,1.67-2,3.33-4,5-6v-9H17.47c.33,3,.67,6,1,9Z"/></svg>