<?xml version="1.0" encoding="UTF-8"?><svg id="uuid-9aca2788-ef63-4981-b11b-30d865c11407" xmlns="http://www.w3.org/2000/svg" width="137" height="276" viewBox="0 0 137 276"><defs><style>.uuid-a3feb3e0-c569-4091-bdb1-24d9092fd062{fill:#883228;}.uuid-a3feb3e0-c569-4091-bdb1-24d9092fd062,.uuid-7fc23a2d-a3cb-4287-b110-128f0ce5fc8d{stroke-width:0px;}.uuid-7fc23a2d-a3cb-4287-b110-128f0ce5fc8d{fill:#e2815a;}</style></defs><path class="uuid-7fc23a2d-a3cb-4287-b110-128f0ce5fc8d" d="m51,29c3.22-1.79,9.55-4.72,18-5,10.84-.36,18.81,3.86,22,5.79v222.22c-2.7,1.85-8.66,5.39-17,5.99-11.27.81-19.45-4.27-22-6-.33-74.33-.67-148.67-1-223Z"/><path class="uuid-a3feb3e0-c569-4091-bdb1-24d9092fd062" d="m18,56c.31-1.49,1.04-3.93,3-6,3.53-3.73,8.84-4,11-4h80.01c1.07-.04,5.3-.1,8.99,3,2.6,2.18,3.62,4.81,4,6v170.58c-.07,1.03-.38,3.29-2,5.42-2.34,3.08-6.27,3.72-8,4-39.02,6.25-74,3.19-76,3-1.98-.19-5.88-.59-10-3-4-2.34-6.5-5.57-8-8l-3-171Z"/></svg>