<?xml version="1.0" encoding="UTF-8"?><svg id="uuid-4f044621-c136-4f67-b7b4-c1924e60b181" xmlns="http://www.w3.org/2000/svg" width="920" height="1047" xmlns:xlink="http://www.w3.org/1999/xlink" viewBox="0 0 920 1047"><defs><style>.uuid-476f3064-ba2b-49b6-9836-1a6729fdb062{fill:#2f3e49;}.uuid-476f3064-ba2b-49b6-9836-1a6729fdb062,.uuid-d9dc3154-3a14-4916-b8cc-7aa0a7271c16,.uuid-a06fe7a2-7586-4a10-8213-afced7b4c5f9,.uuid-f549d427-a657-4ad8-b678-d6721024e81b,.uuid-2f72e849-49ab-4feb-9494-8fcf3f0aa7c1,.uuid-e2b5ff6d-7539-49ed-8411-f7b4ce4706cf,.uuid-df28c862-51e2-48fe-947e-963f46487980{stroke-width:0px;}.uuid-d9dc3154-3a14-4916-b8cc-7aa0a7271c16{fill:#974e5b;}.uuid-a06fe7a2-7586-4a10-8213-afced7b4c5f9{fill:#487b8f;}.uuid-f549d427-a657-4ad8-b678-d6721024e81b{fill:#3f6679;}.uuid-2f72e849-49ab-4feb-9494-8fcf3f0aa7c1{fill:url(#uuid-6a241e49-8ac9-41db-b294-dd2f1930565b);}.uuid-e2b5ff6d-7539-49ed-8411-f7b4ce4706cf{fill:#eccec4;}.uuid-df28c862-51e2-48fe-947e-963f46487980{fill:#314e5b;}</style><linearGradient id="uuid-6a241e49-8ac9-41db-b294-dd2f1930565b" x1="787.83" y1="754.42" x2="789.54" y2="635.96" gradientUnits="userSpaceOnUse"><stop offset="0" stop-color="#fff"/><stop offset=".22" stop-color="#bfbfbf"/><stop offset=".47" stop-color="#7c7c7c"/></linearGradient></defs><g id="uuid-c96a3d13-f565-42f1-840d-2d93aa0e3216"><path class="uuid-df28c862-51e2-48fe-947e-963f46487980" d="m109,222c7.78,263,15.56,526,23.34,789,91.8-8.68,195.35-13.94,308.65-12.27,125.55,1.85,239.1,11.86,338.21,25.27,5.99-261.33,11.99-522.67,17.98-784l-688.18-18Z"/></g><g id="uuid-9dea1a88-3863-4f56-b8fd-c136b6b96d19"><path class="uuid-f549d427-a657-4ad8-b678-d6721024e81b" d="m885.99,391.04c-3.74-82.3-16.23-224.97-85.67-275.05-24.59-17.73-46.61-22.38-90.18-31.56-88.95-18.75-117.4,3.65-248,9.02-128.69,5.29-193.03,7.93-238.98,0-20.86-3.6-48.89-9.58-76.65,4.51-32.43,16.45-46.56,51.16-69.46,107.42-3.23,7.93-16.92,42.21-26.86,89.91,0,0-5.45,26.16-8.02,49.6-8.28,75.56,16.33,157.35,27.68,190.44,32.84,95.69,83.3,158.4,111.83,193.23,24.44,29.83,47.28,52.67,64.02,68.3.63,5.5,1.87,13.38,4.51,22.55,5.27,18.32,13.01,30.93,18.67,39.95,19.78,31.53,39.21,59.14,48.97,72.78,2.97,1.57,7.58,3.57,13.53,4.51,5.59.88,10.31.51,13.53,0,9.54,9.12,19.08,18.24,28.61,27.35,9.87.22,23.49-.55,39.02-4.81,12.76-3.5,23.08-8.33,30.73-12.63-25.28-34.87-50.55-69.74-75.83-104.6-2.46-4.04-5.08-8.6-4.51-9.02.69-.51,5.65,5.27,9.02,9.02,4.81,5.35,6.69,6.91,27.72,26.13,8.25,7.54,19.66,17.99,35.41,32.49,1.49-1.1,3.08-2.56,4.51-4.51,5.59-7.63,4.16-16.76,3.68-19.26-56.73-55.19-70.3-70.2-69.76-69.76,10.07,8.28,19.31,13.82,26.16,17.44,14.29,7.55,25.44,13.24,34.88,8.72,4.43-2.12,7.12-5.84,8.72-8.72-6.49-3.49-15.91-9.1-26.16-17.44-10.1-8.22-11.28-11.41-26.16-26.16-23.41-23.2-32.35-27.29-37.03-29.11-9.03-3.51-17.18-4.34-22.55-4.51-9.73-11.63-22.59-27.9-36.37-48.25-7.72-11.41-40.03-59.99-67.34-132.11-13.69-36.16-28.56-84.67-37.27-143.53,15.27,13.78,39.7,33.12,73.34,48.84,37.69,17.61,65.22,20.51,189.38,27.05,134.29,7.08,157.84,6.63,189.38-9.02,37.72-18.71,62.08-46.87,76.65-67.64,11.17,37.7,21.48,84.37,25.85,138.4,2.82,34.9,2.68,66.83,1,95,7.67,5.09,35.94,22.53,73,17,20.76-3.1,35.83-12.14,44-18,23.83-108.69,25.9-199.95,22.99-263.96Z"/><path class="uuid-e2b5ff6d-7539-49ed-8411-f7b4ce4706cf" d="m373.39,842.17c4.81,5.35,6.69,6.91,27.72,26.13,8.25,7.54,19.66,17.99,35.41,32.49,1.49-1.1,3.08-2.56,4.51-4.51,5.59-7.63,4.16-16.76,3.68-19.26-56.73-55.19-70.3-70.2-69.76-69.76,10.07,8.28,19.31,13.82,26.16,17.44,14.29,7.55,25.44,13.24,34.88,8.72,4.43-2.12,7.12-5.84,8.72-8.72-6.49-3.49-15.91-9.1-26.16-17.44-10.1-8.22-11.28-11.41-26.16-26.16-23.41-23.2-32.35-27.29-37.03-29.11-9.03-3.51-17.18-4.34-22.55-4.51-5.16-5.91-10.35-12.03-15.54-18.37-11.25-13.73-21.56-27.27-30.99-40.47-53.28-35.47-102.96-42.48-121.75-22.55-3.87,4.11-8.8,11.88-9.02,27.05,16.82,24.33,37.57,50.49,63.13,76.65,9.58,9.81,19.12,18.88,28.5,27.27.63,5.5,1.87,13.38,4.51,22.55,5.27,18.32,13.01,30.93,18.67,39.95,19.78,31.53,39.21,59.14,48.97,72.78,2.97,1.57,7.58,3.57,13.53,4.51,5.59.88,10.31.51,13.53,0,9.54,9.12,19.08,18.24,28.61,27.35,9.87.22,23.49-.55,39.02-4.81,12.76-3.5,23.08-8.33,30.73-12.63-25.28-34.87-50.55-69.74-75.83-104.6-2.46-4.04-5.08-8.6-4.51-9.02.69-.51,5.65,5.27,9.02,9.02Z"/><path class="uuid-e2b5ff6d-7539-49ed-8411-f7b4ce4706cf" d="m834.75,823c-1.24-8.61-3.37-16.03-5.6-22.08,2.87-9.03,5.68-18.4,8.4-28.1,3.91-13.94,6.51-24.54,7.86-30.09,6.69-27.42,11.67-53.49,14.59-69.75l6-42c-6.43-3.63-34.63-18.62-70-10-27.85,6.79-44.35,24.37-50,31-.04,24.33-1.63,51.93-6,82-2.95,20.26-6.77,38.97-11,56-4.37,2.75-10.54,7.17-17.05,13.93,0,0-.82.82-1.51,1.6-3.78,4.25-10.04,13.29-20.42,40.09-7.57,19.54-7.34,22.93-13.21,34.56-5.95,11.8-12.26,20.76-16.76,26.6,2.63,1.98,6.61,4.27,11.52,4.4,10.46.27,18.31-9.47,28.28-22.2,4.78-6.09,10.95-14.93,16.76-26.6.31-.63-5.94,18.62-35.22,92.15.59,2.48,3.01,11.4,11.22,16.08,2.09,1.2,4.15,1.88,5.96,2.28,21.8-45.95,30.28-67.88,33.71-79.28.68-2.25,3.57-12.13,4.55-11.91.83.18-.1,7.45-.44,10.07-1.11,8.73-5.29,33.22-22.59,113.7,7.67,1.46,18.07,2.56,30.22,1.31,19.72-2.03,34.54-9.27,43.01-14.29,2.86-7.83,5.73-15.65,8.59-23.48,3.14-.85,7.61-2.44,12.35-5.52,5.05-3.29,8.44-6.99,10.51-9.64,3.17-22.86,6.35-45.72,9.53-68.58,1.54-2.54,3.55-6.59,4.55-11.91.75-4.03.69-7.52.44-10.07,2.18-9.49,4.15-23.6,1.74-40.29Z"/></g><g id="uuid-6a6b2503-8f5d-43bc-a485-81ec95b1e9eb"><path class="uuid-476f3064-ba2b-49b6-9836-1a6729fdb062" d="m746,652c40.42-30.44,83.06-36.83,104-19,4.26,3.63,9.79,10.11,13,22,2-9.33,4-18.67,6-28-2.05-17.33-8.91-24.74-13-28-20.41-16.29-65.87-4.41-109,36-.33,5.67-.67,11.33-1,17Z"/><path class="uuid-476f3064-ba2b-49b6-9836-1a6729fdb062" d="m295,699c-50.92-31.37-100.2-37.36-122-16-4.13,4.05-8.45,10.23-11,20-2.26-2.31-4.63-4.97-7-8-3.31-4.23-5.93-8.32-8-12-2.54-18.15,2.05-26.69,6-31,17.7-19.31,71.06-6.54,134,33,2.67,4.67,5.33,9.33,8,14Z"/><path class="uuid-2f72e849-49ab-4feb-9494-8fcf3f0aa7c1" d="m845,752c-2.09-2.61-5.04-5.96-8.9-9.45,1.97-7.34.34-14.12-3.94-15.57-3.28-1.11-7.22,1.21-10.19,5.52-2.96-1.62-6.17-3.11-9.66-4.38.2-8.25-2.97-14.94-8-15.83-4.94-.87-10.11,4.11-12.79,11.69-3.64-.16-7.18-.03-10.61.31-1.45-4.92-4.41-8.29-7.82-8.29-4.14,0-7.6,4.94-8.53,11.59-15.12,4.6-25.66,12.04-27.55,13.41-6.71,3.24-9.55,9.23-8,13,.99,2.39,3.59,3.53,5,4,9.81-8.37,20.8-14.36,32.04-17.75,1.6,3.7,4.15,6.11,7.04,6.11,3.59,0,6.67-3.72,8.04-9.05,2.91-.26,5.8-.34,8.67-.23.58,6.73,3.54,11.87,7.91,12.64,4.28.76,8.72-2.89,11.58-8.8.91.34,1.82.7,2.72,1.09,2.01.87,3.9,1.83,5.7,2.84-.34,5.37,1.37,9.76,4.72,10.89,2.25.76,4.82-.1,7.17-2.1,4.7,4.41,8.11,8.91,10.41,12.37,1.1-.05,3.34-.35,5-2,2.63-2.61,2.85-7.64,0-12Z"/></g><g id="uuid-8bc7bd32-5256-41af-a0d0-147fd3548b2b"><path class="uuid-a06fe7a2-7586-4a10-8213-afced7b4c5f9" d="m268.24,251.26c-10.1-40.08-15.46-65.3-36.07-94.69-23.09-32.92-52.33-52.38-73.17-63.56,26.65-8.4,65.6-18.31,113.75-22.11,4.51-.36,24.88-2.64,52.37-1.53,44.5,1.8,70.45,11.66,141.52,10.54,81.58-1.28,111.64-15.28,157.76-16.37,25.02-.59,38.77,1.98,45.15,2.84,56.78,7.68,99.81,29.81,126.45,46.62-15.29,2.63-42.15,9.41-68.65,29.27-6.64,4.98-21,16.57-35.25,36.84-25.66,36.51-30.28,71.75-37.1,106.89-14.83,76.45-23.3,120.1-47,153-18.67,25.91-54.82,56.31-132.34,69.27-86.98-13.77-127.73-47.33-148.8-76.65-20.27-28.2-33.05-78.92-58.62-180.36Z"/><path class="uuid-f549d427-a657-4ad8-b678-d6721024e81b" d="m329,356c-13.42-33.19-18.19-60.6-20-73-6.41-43.96-12.57-86.06,6-106,42.66-45.79,216.46,17.49,221,83,4,57.73-124.28,112.4-108,162,3.06,9.31,14.32,27.93,18,34,11.21,18.52,22.2,32.67,30,42-24.32-6.61-58.34-20.15-89-49-32.92-30.97-46.82-65.35-58-93Z"/><path class="uuid-f549d427-a657-4ad8-b678-d6721024e81b" d="m615,198c13.58,8.36,10.11,39.06,4,93-2.8,24.77-7.03,59.09-28,96-12.54,22.08-19.92,35.06-36,44-16.09,8.94-30.43,8.01-44,22-8.14,8.4-12,18.04-14,25-31.87-5.01-72.15-16.57-85-46-35.93-82.27,162.03-259.22,203-234Z"/></g><path class="uuid-a06fe7a2-7586-4a10-8213-afced7b4c5f9" d="m309.61,166.62c3.99-15.97,18.89-66.81,67.64-99.2,53.02-35.23,132.17-39.38,184.87,4.51,37.5,31.23,46.97,74.58,49.6,90.18-1.5,16.53-3.01,33.07-4.51,49.6,5.32,3.05,7.79,6.57,9.02,9.02,5.97,11.87-.87,30.45-18.04,45.09-.66,16.9-2.64,42.08-9.02,72.15-4.47,21.1-6.97,32.9-13.53,45.09-5.45,10.13-23.63,39.05-76.65,54.11h-54.11c-47.07-5.52-68.85-27.04-76.65-36.07-3.06-3.54-11.94-14.38-27.05-58.62-10.43-30.52-16.77-56.27-20.57-73.82-19.05-13.78-25.93-32.68-20.01-43.42,1.06-1.92,4.18-6.57,13.01-9.28-1.33-16.45-2.66-32.89-3.99-49.34Z"/><path class="uuid-e2b5ff6d-7539-49ed-8411-f7b4ce4706cf" d="m580,367c-.9,6.11-2.48,11.45-4.35,16.05-16.33,40.09-66.1,51.84-76.65,54.11-.04,2.79-.52,9.39-4.99,15.84-6.95,10.01-18.04,11.73-20,12-2.78-.46-17.33-3.17-25-16-2.6-4.35-3.67-8.61-4.12-11.84-5.46.04-52.43-.34-76.65-36.07-7.81-11.52-10.94-23.29-12.23-32.09,32.32,5.55,71.88,9.76,117,9,40.91-.68,76.99-5.29,107-11Z"/><g id="uuid-d10adf8c-9edd-4541-9c91-aa8f689ac8ce"><path class="uuid-df28c862-51e2-48fe-947e-963f46487980" d="m446.78,423.42c-7.12.27-17.07-.23-28.28-3.69-5.88-1.81-10.89-4.07-15-6.27-1,.99-2.46,2.24-4.41,3.34-1.78,1-3.43,1.59-4.72,1.94,1.73.44,4.25.86,7.25.63,1.94-.15,3.6-.54,4.91-.95-.72.83-1.57,1.69-2.56,2.54-3.65,3.09-7.56,4.42-10.22,5.05,3.17.1,7.31-.12,11.97-1.31,2.55-.65,4.79-1.48,6.68-2.32-.57,1.08-1.33,2.29-2.37,3.52-2.79,3.28-6.07,4.88-8.07,5.65,2.86-.4,6.58-1.24,10.61-3.08,2.14-.98,3.98-2.07,5.51-3.11,3.77.46,8.27.73,13.33.46,6.02-.31,11.22-1.3,15.38-2.38Z"/><path class="uuid-df28c862-51e2-48fe-947e-963f46487980" d="m546.66,413.46c-6.6,2.68-16.13,5.61-27.84,6.2-6.15.3-11.63-.1-16.24-.77-.6,1.28-1.54,2.94-3.01,4.65-1.33,1.55-2.68,2.66-3.77,3.43,1.78-.18,4.29-.64,7.03-1.89,1.77-.81,3.2-1.74,4.29-2.57-.39,1.03-.89,2.13-1.54,3.26-2.38,4.15-5.59,6.74-7.89,8.23,3.01-.99,6.83-2.61,10.8-5.32,2.18-1.49,4-3.03,5.49-4.46-.16,1.21-.47,2.61-1.03,4.12-1.5,4.03-4.04,6.66-5.66,8.06,2.55-1.35,5.76-3.41,8.92-6.52,1.68-1.66,3.03-3.3,4.11-4.8,3.7-.85,8.02-2.14,12.69-4.12,5.55-2.35,10.1-5.05,13.64-7.49Z"/><path class="uuid-d9dc3154-3a14-4916-b8cc-7aa0a7271c16" d="m383.18,391.65c4.53-.99,9.72-1.65,15.45-1.56,24.01.39,41.39,13.78,48.44,19.97.34,2.08.68,4.16,1.02,6.24-6.69-5.31-24.7-18.04-48.91-17.01-6.83.29-12.8,1.62-17.74,3.21l1.75-10.86Z"/><path class="uuid-d9dc3154-3a14-4916-b8cc-7aa0a7271c16" d="m552.61,391.65c-4.53-.99-9.72-1.65-15.45-1.56-24.01.39-41.39,13.78-48.44,19.97-.34,2.08-.68,4.16-1.02,6.24,6.69-5.31,24.7-18.04,48.91-17.01,6.83.29,12.8,1.62,17.74,3.21-.58-3.62-1.17-7.24-1.75-10.86Z"/></g></svg>