<?xml version="1.0" encoding="UTF-8"?><svg id="uuid-a06acee6-9ee0-4193-be40-dd9a34e32de1" xmlns="http://www.w3.org/2000/svg" width="1440" height="392.48" xmlns:xlink="http://www.w3.org/1999/xlink" viewBox="0 0 1440 392.48"><defs><style>.uuid-fe1deef3-de84-49d8-8f9f-2538e3b00d0f{fill:#999;}.uuid-fe1deef3-de84-49d8-8f9f-2538e3b00d0f,.uuid-3fd7d30c-b029-4666-ab8f-347413f0c4b1,.uuid-632771e8-08b5-4bfb-86a4-332eb8614709,.uuid-70470aeb-5372-48fc-ab51-4d23db406fdd,.uuid-28bbaccb-3c22-4653-a147-611f68a72b1a,.uuid-b146503f-c5b6-4693-8a8d-f0695e1e6c5a,.uuid-d5caa2e0-9b9a-48d9-9792-74963c8e6bf0,.uuid-f3861ed7-4aff-4441-a79b-14e51f8a9300,.uuid-fca465a2-969a-4926-96ec-7523abf3192b,.uuid-5e409c01-8236-49da-a6b8-37f77ed60e74,.uuid-490df717-83e8-43d5-9af8-7f2505759c10,.uuid-1fa558e5-8296-4deb-b5ce-81f62e7ae088,.uuid-c246ba64-74db-4ad0-bbd4-edb7ba57def5,.uuid-8e93cb05-78de-4de6-ab26-c49f9e96a237,.uuid-73f7e925-254b-4d71-ab51-b987276c36e6,.uuid-6459acd1-764c-486c-b4d8-d5d12fd41b9d,.uuid-32e96e30-aeef-4cb9-b95a-44a584a6a67d{stroke-width:0px;}.uuid-699095ed-d837-4131-895b-29e0609bf91c{fill:none;stroke:#cd4c30;stroke-linecap:round;stroke-linejoin:round;stroke-width:1.18px;}.uuid-3fd7d30c-b029-4666-ab8f-347413f0c4b1{fill:#db623c;}.uuid-632771e8-08b5-4bfb-86a4-332eb8614709{fill:#2f3e49;}.uuid-70470aeb-5372-48fc-ab51-4d23db406fdd{fill:#974e5b;}.uuid-28bbaccb-3c22-4653-a147-611f68a72b1a{fill:#f0eeea;}.uuid-b146503f-c5b6-4693-8a8d-f0695e1e6c5a{fill:#487b8f;}.uuid-d5caa2e0-9b9a-48d9-9792-74963c8e6bf0{fill:#3f6679;}.uuid-f3861ed7-4aff-4441-a79b-14e51f8a9300{fill:#ddd8ce;}.uuid-fca465a2-969a-4926-96ec-7523abf3192b{fill:#cd4c30;}.uuid-5e409c01-8236-49da-a6b8-37f77ed60e74{fill:#aa3a29;}.uuid-490df717-83e8-43d5-9af8-7f2505759c10{fill:#f8f8f8;}.uuid-1fa558e5-8296-4deb-b5ce-81f62e7ae088{fill:url(#uuid-8069ae53-030e-4e9f-83bc-a547520e996f);}.uuid-c246ba64-74db-4ad0-bbd4-edb7ba57def5{fill:#883228;}.uuid-8e93cb05-78de-4de6-ab26-c49f9e96a237{fill:silver;}.uuid-73f7e925-254b-4d71-ab51-b987276c36e6{fill:#eccec4;}.uuid-6459acd1-764c-486c-b4d8-d5d12fd41b9d{fill:#e2815a;}.uuid-32e96e30-aeef-4cb9-b95a-44a584a6a67d{fill:#314e5b;}</style><linearGradient id="uuid-8069ae53-030e-4e9f-83bc-a547520e996f" x1="657.92" y1="240.1" x2="658.49" y2="200.29" gradientUnits="userSpaceOnUse"><stop offset="0" stop-color="#fff"/><stop offset=".22" stop-color="#bfbfbf"/><stop offset=".47" stop-color="#7c7c7c"/></linearGradient></defs><g id="uuid-4c685366-7a32-4932-9011-cf4cb5c40d85"><path class="uuid-32e96e30-aeef-4cb9-b95a-44a584a6a67d" d="m429.78,61.17c2.61,88.39,5.23,176.77,7.84,265.16,30.85-2.92,65.65-4.69,103.73-4.12,42.19.62,80.36,3.98,113.66,8.49,2.01-87.83,4.03-175.65,6.04-263.48-77.09-2.02-154.19-4.03-231.28-6.05Z"/><rect class="uuid-490df717-83e8-43d5-9af8-7f2505759c10" y="183.48" width="1440" height="209"/><path class="uuid-28bbaccb-3c22-4653-a147-611f68a72b1a" d="m440,390.48c186.12-.01,372.25-.02,558.37-.03.54-71.33,1.09-142.67,1.63-214-186.36.67-372.73,1.33-559.09,2-.3,70.68-.6,141.36-.91,212.03Z"/><path class="uuid-c246ba64-74db-4ad0-bbd4-edb7ba57def5" d="m496.03,253.93c4.32.18,11.21.69,19.71,2.36,1.63,4.28,3.46,10.49,3.94,18.13.58,9.07-.97,16.49-2.36,21.28-1.18,15.11-2.36,30.22-3.55,45.32-2.5,1.97-4.99,3.94-7.49,5.91-7.58.03-15.2.03-22.86,0-19.69-.07-39.13-.34-58.33-.79-10.71.37-21.62.64-32.71.79-14.09.19-27.89.18-41.38,0-3.64-2.23-12.35-8.13-11.82-14.98.55-7.17,10.93-11.61,14.98-13.4,56.2-24.91,80.84-67.22,141.88-64.64Z"/><path class="uuid-5e409c01-8236-49da-a6b8-37f77ed60e74" d="m364.79,335.51c-12.98.61-15.9,2.41-16.16,3.94-.35,2.03,3.77,4.7,6.7,5.91,3.68,1.53,6.92,1.34,8.94,1.25,3.16-.14,9.1.41,21.01.32,13.94-.1,15.11.29,20.89-.39,7.21-.85,13.04-2.36,16.95-3.55,25.09.39,50.19.79,75.28,1.18.59.09,5.96.79,9.85-3.15,2.72-2.75,3.08-6.11,3.15-7.09,1.05-22.99,2.1-45.98,3.15-68.97-.52-1.66-1.68-4.43-4.34-6.31-2.71-1.91-5.64-1.95-7.49-1.97-6.01-.08-12.87-.25-20.89-.39-3.81-1.97-7.62-3.94-11.43-5.91,11.56.13,23.12.26,34.68.39,1.11-.16,7.01-.9,12.22,3.15,3.82,2.97,5.12,6.86,5.52,8.28-1.31,24.83-2.63,49.66-3.94,74.49-.24,1.84-1,5.64-3.94,9.06-5.78,6.73-14.77,6.01-15.76,5.91-31.46-1.2-63.66-2-96.56-2.36-26.61-.29-52.76-.28-78.43,0-15.76-7.09-31.53-14.19-47.29-21.28,27.85-.79,55.7-1.58,83.55-2.36,1.45,3.28,2.89,6.57,4.34,9.85Z"/><path class="uuid-6459acd1-764c-486c-b4d8-d5d12fd41b9d" d="m505.89,250.78c-.22.59-.54,1.55-.79,2.76-.35,1.68-.38,3.01-.39,3.55-.05,2.38-.55,28.78-1.18,65.03.07.37.6,3.4-1.58,5.91-2.29,2.64-5.58,2.39-5.91,2.36-15.63-.26-31.27-.53-46.9-.79,4.86-26.41,9.72-52.81,14.58-79.22,14.06.13,28.11.26,42.17.39Z"/><path class="uuid-28bbaccb-3c22-4653-a147-611f68a72b1a" d="m374.5,346.91c-1.26,2.44-3.27,6.27-6.26,10.69,0,0-2.22,3.27-4.66,6.26-4.47,5.46-19.35,15.76-40.61,24.04,186.19.86,372.39,1.72,558.58,2.57.47-71.33.95-142.67,1.42-214-162.49.67-324.98,1.33-487.48,2,.49,13.96.65,28.79.34,44.4-.17,8.78-.48,17.29-.89,25.51,0,0-3.63,66.09-20.44,98.53Z"/><path class="uuid-d5caa2e0-9b9a-48d9-9792-74963c8e6bf0" d="m690.9,117.97c-1.26-27.66-5.45-75.6-28.79-92.44-8.26-5.96-15.66-7.52-30.31-10.61-29.89-6.3-39.45,1.23-83.35,3.03-43.25,1.78-64.87,2.67-80.32,0-7.01-1.21-16.43-3.22-25.76,1.52-10.9,5.53-15.65,17.19-23.34,36.1-1.09,2.67-5.69,14.18-9.03,30.22,0,0-1.83,8.79-2.69,16.67-2.78,25.39,5.49,52.88,9.3,64,11.04,32.16,27.99,53.24,37.58,64.94,8.22,10.03,15.89,17.7,21.52,22.95,1.41.35,11.53,2.7,20.28-3.88,6.01-4.52,7.95-10.68,8.51-12.79-3.27-3.91-7.59-9.38-12.22-16.22-2.59-3.83-13.45-20.16-22.63-44.4-4.6-12.15-9.6-28.46-12.52-48.24,5.13,4.63,13.34,11.13,24.65,16.41,12.67,5.92,21.92,6.89,63.65,9.09,45.13,2.38,53.05,2.23,63.65-3.03,12.68-6.29,20.86-15.75,25.76-22.73,3.76,12.67,7.22,28.35,8.69,46.51.95,11.73.9,22.46.34,31.93,2.58,1.71,12.08,7.57,24.53,5.71,6.98-1.04,12.04-4.08,14.79-6.05,8.01-36.53,8.7-67.2,7.73-88.71Z"/><path class="uuid-73f7e925-254b-4d71-ab51-b987276c36e6" d="m518.63,269.59c.33.37.62.68.93,1,3.22,3.34,8.39,7.78,8.39,7.78,3.24,3.19,6.48,6.38,9.72,9.57.26.18,1.23.82,2.33.54,1.09-.27,1.61-1.26,2-2,1.07-2.02.81-4.13.6-5.18-19.07-18.55-23.63-23.59-23.44-23.44,3.38,2.78,6.49,4.65,8.79,5.86,4.8,2.54,8.55,4.45,11.72,2.93,1.49-.71,2.39-1.96,2.93-2.93-2.18-1.17-5.35-3.06-8.79-5.86-3.39-2.76-3.79-3.84-8.79-8.79-7.87-7.8-10.87-9.17-12.45-9.78-3.04-1.18-5.77-1.46-7.58-1.52-1.73-1.99-3.48-4.04-5.22-6.17-3.78-4.61-7.24-9.16-10.42-13.6-17.9-11.92-34.6-14.28-40.92-7.58-1.3,1.38-2.96,3.99-3.03,9.09,5.65,8.18,12.63,16.97,21.22,25.76,3.22,3.3,6.43,6.35,9.58,9.17.21,1.85.63,4.5,1.52,7.58,1.77,6.16,4.37,10.4,6.27,13.43,6.65,10.6,13.18,19.87,16.46,24.46,1,.53,2.55,1.2,4.55,1.52,1.88.3,3.46.17,4.55,0,3.21,3.06,6.41,6.13,9.62,9.19.66.26,1.63.6,2.84.87,7.06,1.57,12.58-1.52,17-4,.6-.33,1.53-.9,2-2,.51-1.2.2-2.41,0-3-17.51-23.26-22.34-30.36-23.88-32.89-.1-.16-1.74-2.87-1.52-3.03.23-.17,1.9,1.77,3.03,3.03Z"/><path class="uuid-6459acd1-764c-486c-b4d8-d5d12fd41b9d" d="m277.29,264.18h-7.49c-2.25,3.34-6.73,10.95-7.49,21.68-.83,11.71,3.23,20.49,5.12,24.04,2.36-.26,4.73-.53,7.09-.79.92-14.98,1.84-29.95,2.76-44.93Z"/><path class="uuid-5e409c01-8236-49da-a6b8-37f77ed60e74" d="m272.96,275.61c-.68,4.28-2.54,17.47,0,34.68,1.1,7.44,2.68,13.52,3.94,17.74,5.78,2.1,11.56,4.2,17.34,6.31,60.56,1.18,121.13,2.36,181.69,3.55,1.25.16,4.85.47,8.67-1.58,2.73-1.46,4.52-3.63,5.91-5.91,12.43-20.43,13.01-46.51,13.01-46.51s.39-17.82-6.43-33.82c-.5-1.16-1.35-2.98-3.03-4.81-4.39-4.81-10.68-5.61-13.01-5.91-11.07-1.42-85.05-1.01-186.42,1.18-2.98.85-7.18,2.49-11.04,5.91-7.25,6.45-8.41,15.09-10.64,29.17Z"/><path class="uuid-c246ba64-74db-4ad0-bbd4-edb7ba57def5" d="m317.49,326.05c-.6-4.69,1.93-8.11,2.36-8.67,3.59-4.68,9.2-4.73,9.85-4.73,3.4.99,6.81,1.98,10.21,2.96-3.2-2.96-7.61-5.03-12.18-4.54-4.27.46-9.48,3.24-11.43,8.67-1.65,4.59-.91,10.88,3.15,13.79,1.53,1.1,3.17,1.46,4.34,1.58.03,0,.05,0,.08,0-2.11-1.27-5.75-4.15-6.38-9.07Z"/><path class="uuid-c246ba64-74db-4ad0-bbd4-edb7ba57def5" d="m352.57,335.51c-1.32-.95-3.12-2.47-4.73-4.73-1.22-1.72-1.84-3.2-2.28-4.58-.39,4.46-3.11,7.55-3.64,8.13-.42.46-.85.87-1.28,1.23,4.58.03,8.91,0,11.92-.05Z"/><path class="uuid-fca465a2-969a-4926-96ec-7523abf3192b" d="m343.9,320.93c-.86-1.85-2.25-3.71-3.98-5.31-3.4-.99-6.81-1.98-10.21-2.96-.65,0-6.27.05-9.85,4.73-.43.56-2.97,3.98-2.36,8.67.63,4.92,4.28,7.79,6.38,9.07.83.5,1.42.75,1.5.79,3.81.66,7.62,1.31,11.43,1.97.8-.04,3.87-.29,6.31-2.76,3.52-3.57,2.54-8.52,2.45-8.92-.56-1.8-.81-3.44-1.67-5.27Z"/><path class="uuid-6459acd1-764c-486c-b4d8-d5d12fd41b9d" d="m327.35,313.84c6.02-.12,10.74,5.67,10.25,11.43-.41,4.78-4.37,9.19-9.46,9.46-5.64.3-10.53-4.58-10.64-10.25-.11-5.53,4.35-10.53,9.85-10.64Z"/><path class="uuid-c246ba64-74db-4ad0-bbd4-edb7ba57def5" d="m400.85,327.63c.92,2.23,1.84,4.47,2.76,6.7h25.62c-.53-2.36-1.05-4.73-1.58-7.09-8.93.13-17.87.26-26.8.39Z"/><path class="uuid-6459acd1-764c-486c-b4d8-d5d12fd41b9d" d="m402.23,330.78c8.67-.13,17.34-.26,26.01-.39-.26-.92-.53-1.84-.79-2.76l-1.18-2.36,1.18-15.37c-9.85.26-19.71.53-29.56.79v4.34c4.73-.13,9.46-.26,14.19-.39-.98.38-2.81,1.26-4.34,3.15-.81,1-1.29,2-1.58,2.76-1.8-1.04-4.02-.87-5.52.39-1.93,1.63-1.6,4.18-1.58,4.34,1.05,1.84,2.1,3.68,3.15,5.52Z"/><path class="uuid-c246ba64-74db-4ad0-bbd4-edb7ba57def5" d="m423.51,286.25c-.5,0-1.47-15.58-.39-33.83.33-5.66.8-10.4,1.18-13.86h1.97c-.21,2.95-.49,7-.79,11.82-1.57,25.14-1.55,35.87-1.97,35.87Z"/><line class="uuid-699095ed-d837-4131-895b-29e0609bf91c" x1="335.03" y1="336.5" x2="418.59" y2="323.1"/><line class="uuid-699095ed-d837-4131-895b-29e0609bf91c" x1="423.32" y1="317.19" x2="423.32" y2="284.87"/><circle class="uuid-3fd7d30c-b029-4666-ab8f-347413f0c4b1" cx="419.18" cy="318.57" r="5.12"/><circle class="uuid-3fd7d30c-b029-4666-ab8f-347413f0c4b1" cx="327.74" cy="324.08" r="2.76"/><path class="uuid-c246ba64-74db-4ad0-bbd4-edb7ba57def5" d="m435.34,263.55c.6,1.89,2.16,3.22,3.94,3.38,2.04.19,4.01-1.2,4.73-3.38.26-8.33.53-16.66.79-24.99h-8.28c-.39,8.33-.79,16.66-1.18,24.99Z"/><path class="uuid-6459acd1-764c-486c-b4d8-d5d12fd41b9d" d="m280.45,316.2c-.59.29-2.27,1.2-3.15,3.15-1.1,2.43-.42,5.26,1.18,7.09,2.04,2.33,5.21,2.66,7.49,1.97,1.57-.48,2.62-1.41,3.15-1.97.53-1.05,1.05-2.1,1.58-3.15.06-.53.34-3.33-1.58-5.52-1.98-2.26-5.5-2.95-8.67-1.58Z"/><path class="uuid-c246ba64-74db-4ad0-bbd4-edb7ba57def5" d="m299.96,320.33c.58-.67,1.67-1.76,3.31-2.56h-10.6c-.22.47-.85,2.02-.39,3.94.5,2.12,1.97,3.26,2.36,3.55h1.27c1.2-1.14,2.41-2.28,3.61-3.42.15-.5.29-1.01.44-1.51Z"/><path class="uuid-c246ba64-74db-4ad0-bbd4-edb7ba57def5" d="m306.07,325.27c.06-.07.2-.24.36-.5-.21.15-.44.31-.71.5h.35Z"/><path class="uuid-6459acd1-764c-486c-b4d8-d5d12fd41b9d" d="m307.25,321.32c-.24-2.14-1.7-3.33-1.97-3.55h-2.01c-1.64.8-2.72,1.88-3.31,2.56-.15.5-.29,1.01-.44,1.51-1,.74-2.1,1.49-3.31,2.23-.95.59-1.87,1.11-2.76,1.58-1.07,1.39-.99,3.26,0,4.34,1.21,1.31,3.7,1.32,5.12-.39,1.74-1.35,3.47-2.71,5.21-4.06.22.2.43.4.65.6.49-.33.91-.62,1.28-.87.26-.18.5-.35.71-.5.42-.66,1-1.88.82-3.45Z"/><path class="uuid-6459acd1-764c-486c-b4d8-d5d12fd41b9d" d="m354.15,240.53c1.75,1.33,5.43,3.75,10.64,4.34,9.17,1.02,15.74-4.47,16.95-5.52,1.84-.13,3.68-.26,5.52-.39v-13.01c-2.95-1.54-9.68-4.54-18.52-3.94-6.26.43-11.03,2.48-13.79,3.94-.26,4.86-.53,9.72-.79,14.58Z"/><path class="uuid-c246ba64-74db-4ad0-bbd4-edb7ba57def5" d="m315.52,281.12c.13,12.37,22.05,22.82,39.96,23.25,20.27.49,43.7-11.65,43.59-24.04-.11-12.56-24.4-24.56-45.21-23.25-17.37,1.09-38.48,11.84-38.35,24.04Z"/><path class="uuid-5e409c01-8236-49da-a6b8-37f77ed60e74" d="m321.08,288.61c-.67.61-1.74,1.05-2.7.79-.37-.1-1.11-.4-2.42-3.15-.49-1.03-1.1-2.49-1.61-4.34-.26-3.55-.53-7.09-.79-10.64.03-.54.17-1.91,1.18-3.15,1.72-2.11,4.43-1.99,4.73-1.97,38.58-.21,65.13-.36,67.09-.39.1,0,.47,0,.97.01,1,.04,2.55.2,4.31.78,1.68.55,3.02,1.31,4,1.97.69,1.08,1.61,2.68,2.42,4.73.86,2.18,1.64,4.14,1.61,6.7-.01,1.26-.24,3.79-1.97,6.7-.2.31-1.05,1.57-2.7,1.97-1.64.4-3.43-.22-4.61-1.58-1.38-.53-2.77-1.05-4.15-1.58-21.45.26-42.9.53-64.35.79,0,.2,0,1.44-1.01,2.36Z"/><path class="uuid-f3861ed7-4aff-4441-a79b-14e51f8a9300" d="m373.46,348.91c37.18.39,74.36.79,111.54,1.18h0s0,0,0,0c-.01,0-26.65-.59-65.81,5.91-30,4.98-53.78,11.88-62.27,14.98-.54.2-13,4.75-13.01,4.73,0,0,0,0,0,0,4.33-2.44,9.38-5.76,14.58-10.25,6.73-5.8,11.58-11.72,14.98-16.55Z"/><path class="uuid-73f7e925-254b-4d71-ab51-b987276c36e6" d="m673.68,263.15c-.42-2.89-1.13-5.39-1.88-7.42.96-3.03,1.91-6.18,2.82-9.44,1.31-4.69,2.19-8.25,2.64-10.11,2.25-9.22,3.92-17.98,4.9-23.44.67-4.71,1.34-9.41,2.02-14.12-2.16-1.22-11.64-6.26-23.53-3.36-9.36,2.28-14.91,8.19-16.8,10.42-.01,8.18-.55,17.45-2.02,27.56-.99,6.81-2.28,13.1-3.7,18.82-1.47.93-3.54,2.41-5.73,4.68,0,0-.27.28-.51.54-1.27,1.43-3.37,4.47-6.86,13.47-2.54,6.57-2.47,7.71-4.44,11.61-2,3.96-4.12,6.98-5.63,8.94.88.66,2.22,1.44,3.87,1.48,3.51.09,6.16-3.18,9.51-7.46,1.6-2.05,3.68-5.02,5.63-8.94.11-.21-2,6.26-11.84,30.97,0,.55.06,1.81.85,3.12.67,1.11,1.54,1.72,2,2,.28.12,1.73.71,3,0,.27-.15.48-.33.66-.52,6.8-14.35,9.46-21.35,10.59-25.08.24-.79,1.2-4.07,1.53-4,.28.06-.03,2.49-.15,3.39-.37,2.93-1.69,10.74-6.92,35.1-.05.22-.24,1.15.29,2.12.57,1.03,1.56,1.35,1.75,1.4,2.11.23,4.63.32,7.44.03,6.46-.67,11.42-3.02,14.45-4.8.96-2.63,1.92-5.26,2.89-7.89,1.06-.29,2.56-.82,4.15-1.86,1.7-1.1,2.84-2.35,3.53-3.24,1.07-7.68,2.13-15.37,3.2-23.05.52-.85,1.19-2.21,1.53-4,.25-1.35.23-2.53.15-3.39.73-3.19,1.39-7.93.59-13.54Z"/><path class="uuid-632771e8-08b5-4bfb-86a4-332eb8614709" d="m643.86,205.68c13.58-10.23,27.92-12.38,34.95-6.39,1.43,1.22,3.29,3.4,4.37,7.39.67-3.14,1.34-6.27,2.02-9.41-.69-5.82-3-8.31-4.37-9.41-6.86-5.48-22.14-1.48-36.63,12.1-.11,1.9-.22,3.81-.34,5.71Z"/><path class="uuid-632771e8-08b5-4bfb-86a4-332eb8614709" d="m492.29,221.47c-17.11-10.54-33.67-12.56-41-5.38-1.39,1.36-2.84,3.44-3.7,6.72-.76-.78-1.56-1.67-2.35-2.69-1.11-1.42-1.99-2.8-2.69-4.03-.85-6.1.69-8.97,2.02-10.42,5.95-6.49,23.88-2.2,45.03,11.09.9,1.57,1.79,3.14,2.69,4.71Z"/><path class="uuid-1fa558e5-8296-4deb-b5ce-81f62e7ae088" d="m677.13,239.28c-.7-.88-1.69-2-2.99-3.17.66-2.47.11-4.75-1.32-5.23-1.1-.37-2.43.41-3.43,1.85-1-.54-2.07-1.05-3.25-1.47.07-2.77-1-5.02-2.69-5.32-1.66-.29-3.4,1.38-4.3,3.93-1.22-.05-2.41,0-3.57.1-.49-1.65-1.48-2.79-2.63-2.79-1.39,0-2.55,1.66-2.87,3.9-5.08,1.55-8.62,4.05-9.26,4.51-2.26,1.09-3.21,3.1-2.69,4.37.33.8,1.21,1.19,1.68,1.34,3.3-2.81,6.99-4.83,10.77-5.97.54,1.24,1.4,2.05,2.36,2.05,1.21,0,2.24-1.25,2.7-3.04.98-.09,1.95-.11,2.91-.08.19,2.26,1.19,3.99,2.66,4.25,1.44.25,2.93-.97,3.89-2.96.31.11.61.23.91.37.68.29,1.31.61,1.91.96-.12,1.8.46,3.28,1.59,3.66.76.26,1.62-.03,2.41-.71,1.58,1.48,2.73,2.99,3.5,4.16.37-.02,1.12-.12,1.68-.67.88-.88.96-2.57,0-4.03Z"/><path class="uuid-b146503f-c5b6-4693-8a8d-f0695e1e6c5a" d="m483.3,71c-3.4-13.47-5.19-21.94-12.12-31.82-7.76-11.06-17.59-17.6-24.59-21.36,8.96-2.82,22.05-6.15,38.23-7.43,1.52-.12,8.36-.89,17.6-.51,14.96.61,23.68,3.92,47.56,3.54,27.42-.43,37.52-5.13,53.02-5.5,8.41-.2,13.03.66,15.17.95,19.08,2.58,33.54,10.02,42.5,15.67-5.14.88-14.16,3.16-23.07,9.84-2.23,1.67-7.06,5.57-11.85,12.38-8.62,12.27-10.18,24.11-12.47,35.92-4.99,25.69-7.83,40.36-15.8,51.42-6.27,8.71-18.42,18.93-44.48,23.28-29.23-4.63-42.93-15.91-50.01-25.76-6.81-9.48-11.11-26.52-19.7-60.62Z"/><path class="uuid-d5caa2e0-9b9a-48d9-9792-74963c8e6bf0" d="m503.71,106.2c-4.51-11.16-6.11-20.37-6.72-24.53-2.15-14.78-4.23-28.92,2.02-35.62,14.34-15.39,72.74,5.88,74.27,27.89,1.35,19.4-41.77,37.78-36.3,54.44,1.03,3.13,4.81,9.39,6.05,11.43,3.77,6.23,7.46,10.98,10.08,14.12-8.17-2.22-19.61-6.77-29.91-16.47-11.06-10.41-15.73-21.96-19.49-31.25Z"/><path class="uuid-d5caa2e0-9b9a-48d9-9792-74963c8e6bf0" d="m599.83,53.1c4.56,2.81,3.4,13.13,1.34,31.25-.94,8.32-2.36,19.86-9.41,32.26-4.22,7.42-6.69,11.78-12.1,14.79-5.41,3.01-10.23,2.69-14.79,7.39-2.74,2.82-4.03,6.06-4.71,8.4-10.71-1.68-24.25-5.57-28.57-15.46-12.08-27.65,54.45-87.12,68.22-78.64Z"/><path class="uuid-b146503f-c5b6-4693-8a8d-f0695e1e6c5a" d="m497.2,42.55c1.34-5.37,6.35-22.45,22.73-33.34,17.82-11.84,44.42-13.24,62.13,1.52,12.6,10.49,15.78,25.06,16.67,30.31-.51,5.56-1.01,11.11-1.52,16.67,1.79,1.02,2.62,2.21,3.03,3.03,2.01,3.99-.29,10.23-6.06,15.15-.22,5.68-.89,14.14-3.03,24.25-1.5,7.09-2.34,11.06-4.55,15.15-1.83,3.41-7.94,13.12-25.76,18.18h-18.18c-15.82-1.86-23.14-9.09-25.76-12.12-1.03-1.19-4.01-4.83-9.09-19.7-3.51-10.26-5.64-18.91-6.91-24.81-6.4-4.63-8.72-10.98-6.72-14.59.36-.65,1.4-2.21,4.37-3.12-.45-5.53-.89-11.05-1.34-16.58Z"/><path class="uuid-73f7e925-254b-4d71-ab51-b987276c36e6" d="m588.07,109.9c-.3,2.05-.83,3.85-1.46,5.4-5.49,13.47-22.22,17.42-25.76,18.18-.01.94-.17,3.16-1.68,5.32-2.33,3.36-6.06,3.94-6.72,4.03-.93-.16-5.82-1.07-8.4-5.38-.87-1.46-1.23-2.89-1.38-3.98-1.84.01-17.62-.12-25.76-12.12-2.63-3.87-3.68-7.83-4.11-10.78,10.86,1.87,24.16,3.28,39.32,3.02,13.75-.23,25.87-1.78,35.96-3.7Z"/><path class="uuid-32e96e30-aeef-4cb9-b95a-44a584a6a67d" d="m543.3,128.86c-2.39.09-5.74-.08-9.5-1.24-1.98-.61-3.66-1.37-5.04-2.11-.34.33-.83.75-1.48,1.12-.6.34-1.15.53-1.59.65.58.15,1.43.29,2.44.21.65-.05,1.21-.18,1.65-.32-.24.28-.53.57-.86.85-1.23,1.04-2.54,1.49-3.44,1.7,1.06.03,2.46-.04,4.02-.44.86-.22,1.61-.5,2.25-.78-.19.36-.45.77-.8,1.18-.94,1.1-2.04,1.64-2.71,1.9.96-.13,2.21-.42,3.56-1.04.72-.33,1.34-.69,1.85-1.04,1.27.15,2.78.24,4.48.16,2.02-.11,3.77-.44,5.17-.8Z"/><path class="uuid-32e96e30-aeef-4cb9-b95a-44a584a6a67d" d="m576.86,125.51c-2.22.9-5.42,1.89-9.36,2.08-2.07.1-3.91-.03-5.46-.26-.2.43-.52.99-1.01,1.56-.45.52-.9.89-1.27,1.15.6-.06,1.44-.21,2.36-.63.6-.27,1.07-.58,1.44-.87-.13.35-.3.72-.52,1.1-.8,1.4-1.88,2.26-2.65,2.77,1.01-.33,2.29-.88,3.63-1.79.73-.5,1.34-1.02,1.84-1.5-.05.41-.16.88-.35,1.38-.5,1.35-1.36,2.24-1.9,2.71.86-.45,1.94-1.15,3-2.19.56-.56,1.02-1.11,1.38-1.61,1.24-.29,2.7-.72,4.26-1.38,1.87-.79,3.4-1.7,4.59-2.52Z"/><path class="uuid-70470aeb-5372-48fc-ab51-4d23db406fdd" d="m521.92,118.18c1.52-.33,3.27-.56,5.19-.52,8.07.13,13.91,4.63,16.28,6.71.11.7.23,1.4.34,2.1-2.25-1.78-8.3-6.06-16.44-5.72-2.29.1-4.3.54-5.96,1.08l.59-3.65Z"/><path class="uuid-70470aeb-5372-48fc-ab51-4d23db406fdd" d="m578.86,118.18c-1.52-.33-3.27-.56-5.19-.52-8.07.13-13.91,4.63-16.28,6.71-.11.7-.23,1.4-.34,2.1,2.25-1.78,8.3-6.06,16.44-5.72,2.29.1,4.3.54,5.96,1.08l-.59-3.65Z"/><path class="uuid-8e93cb05-78de-4de6-ab26-c49f9e96a237" d="m1196.55,272.27c-4.85-3.85-9.75-7.85-14.68-12.02-9.82-8.3-19.01-16.57-27.57-24.72.15-.2.43-.52.88-.72,1.1-.48,2.19.22,2.29.29,9.03,5.03,18.38,10.63,27.94,16.88,4.78,3.13,9.39,6.26,13.82,9.4-.89,3.63-1.79,7.26-2.68,10.89Z"/><path class="uuid-fca465a2-969a-4926-96ec-7523abf3192b" d="m1193.14,271.98c5.92,2.42,11.84,4.84,17.76,7.26,2.11-1.78,5.22-4.1,9.32-6.22,4.06-2.1,7.12-3.68,11.53-4.11,5.38-.52,10.01.92,13.6,2.04,1.94.6,3.51,1.23,4.63,1.71,0,.81.01,1.62.02,2.43,1.7.77,3.4,1.53,5.11,2.3.71-.48,1.43-.97,2.14-1.45,1.17.35,3.88.98,6.91-.05,3.48-1.19,7.04-4.46,7.18-8.49.1-2.68-1.36-4.67-2.21-5.84-4.28-5.86-12.04-6.63-14.4-6.87-4.17-.41-7.19.27-11.34,1.21-7.19,1.63-12.4,4.25-17.65,6.93-4.07,2.08-7.38,4.08-9.8,5.63-4.6-1.77-9.21-3.53-13.81-5.3-1.19.82-2.46,1.79-3.76,2.96-2.24,2.01-3.95,4.05-5.24,5.83Zm53.94-11.05c.46-.41,1.22-.99,2.3-1.38,1.15-.42,2.21-.45,3.33-.36,4.64.37,8.86,2.7,10.98,4.95.3.31.72.81.97,1.56.42,1.26.16,2.74-.61,3.82-1,1.41-2.56,1.73-3.27,1.88-1.36.28-2.87.15-5.66-1.06-2.2-.95-8.95-3.88-8.8-7.32.05-1.18.75-2.08.75-2.08Z"/><path class="uuid-5e409c01-8236-49da-a6b8-37f77ed60e74" d="m1198.3,266.12c1.3-1.17,2.57-2.14,3.76-2.96,4.6,1.77,9.21,3.53,13.81,5.3,1.25-.8,2.73-1.72,4.43-2.71.5.91.81,1.9.74,3.08-.09,1.43-.51,3.04-1.27,4.36-3.92,2.07-6.9,4.3-8.94,6.02-5.92-2.42-11.84-4.84-17.76-7.26,1.29-1.78,3-3.82,5.24-5.83Z"/><path class="uuid-8e93cb05-78de-4de6-ab26-c49f9e96a237" d="m1193.91,272.33c-6.87-2.76-14-5.83-21.33-9.25-8.69-4.05-16.83-8.19-24.42-12.32-.18-.14-.83-.66-.97-1.56-.06-.37-.01-.69.04-.91,9.76,2.13,19.92,4.69,30.39,7.75,3.95,1.15,7.82,2.34,11.61,3.56,2.69,1.34,5.37,2.67,8.06,4.01-.67,2.18-1.34,4.36-2.02,6.54-.45.73-.9,1.45-1.36,2.18Z"/><path class="uuid-fe1deef3-de84-49d8-8f9f-2538e3b00d0f" d="m1196.56,272.23c-4.85-3.85-9.75-7.85-14.68-12.02-9.82-8.3-19.01-16.57-27.57-24.72.42.03.95.11,1.53.32,1.05.37,1.77.96,2.18,1.36,8.87,7.29,17.75,14.58,26.62,21.87,4.16,3.3,8.32,6.6,12.47,9.91-.18,1.1-.37,2.19-.55,3.29Z"/><path class="uuid-fca465a2-969a-4926-96ec-7523abf3192b" d="m1195.99,267.31c-.25,2.38.11,4.35.45,5.6,5.69,4.18,11.37,8.36,17.06,12.53,2.48.56,4.96,1.12,7.43,1.68,3.79,6.1,7.74,10.49,10.71,13.4,3.95,3.86,7.32,7.09,12.82,9.13,2.6.97,9.15,3.4,13.84.28.54-.36,2.78-1.85,3.32-4.46.44-2.15-.48-4.03-1.28-5.42-2.91-5.05-6.82-8.06-12.99-13.3-6.39-5.42-7.47-6.67-10.73-8-3.06-1.25-5.24-2.14-8.12-1.8-2.11.25-7.17,1.46-11.44,2.66-.38.11-1.21.34-1.83-.08-.28-.19-.84-.75-.63-4.38.06-1.02.18-2.35.45-3.89-5.49-3.65-10.98-7.31-16.47-10.96-.82,1.2-2.24,3.63-2.61,7.02Zm34.68,16.39c1.42-.65,3.21.48,4.3,1.2,4.55,2.97,8.2,5.85,8.99,6.48,0,0,8.06,6.32,11.49,10.02.35.37,1.1,1.22.92,2.09-.19.91-1.32,1.39-1.84,1.59-1.09.44-3.27.98-7.61-.45-1.9-.63-4.68-1.79-7.68-4.02-.79-.66-2.08-1.77-3.55-3.28-3.41-3.48-7.51-7.66-6.61-11.36.06-.26.42-1.73,1.58-2.27Z"/><path class="uuid-32e96e30-aeef-4cb9-b95a-44a584a6a67d" d="m1251.69,259.23c.32,0,.67.02,1.05.05,4.64.37,8.86,2.7,10.98,4.95.29.31.73.8.97,1.56.41,1.27.09,2.71-.65,3.74-1.01,1.41-2.57,1.74-3.27,1.88-.23.05-.52.09-.93.09-.88,0-2.3-.22-4.73-1.16,0,0-6.99-2.7-8.53-6.27-.09-.2-.23-.54-.23-.97-.02-1.59,1.71-2.91,3.05-3.46.67-.28,1.36-.41,2.27-.41m0-2.38c-1.22,0-2.2.18-3.18.59-2.1.87-4.55,2.88-4.52,5.68,0,.92.3,1.6.42,1.89,1.68,3.9,7.58,6.73,9.87,7.5l-.02.05c2.3.89,4.13,1.32,5.59,1.32.64,0,1.11-.08,1.41-.14.87-.18,3.17-.65,4.72-2.83,1.21-1.7,1.59-3.95.97-5.85-.42-1.31-1.21-2.14-1.51-2.46-2.21-2.34-6.82-5.24-12.52-5.69-.46-.04-.86-.05-1.24-.05h0Z"/><path class="uuid-32e96e30-aeef-4cb9-b95a-44a584a6a67d" d="m1231.64,283.58c1.21,0,2.5.83,3.37,1.39,4.55,2.97,8.2,5.85,8.99,6.48,1.24.96,9.13,7.13,11.49,10.02.49.6,1.02,1.4.81,2.16-.05.19-.3.95-1.99,1.52-.32.11-1.1.35-2.4.35s-2.93-.21-5.15-.96c-.83-.28-3.81-1.32-7.22-3.81-1.69-1.23-2.79-2.32-3.82-3.33-6.27-6.21-6.84-10.42-6.61-11.36.06-.26.42-1.73,1.58-2.27.3-.14.61-.2.93-.2m0-2.38c-.68,0-1.33.14-1.93.41-1.42.65-2.45,2.03-2.89,3.86-.47,1.93.53,6.96,7.24,13.61.99.98,2.23,2.2,4.09,3.56,3.33,2.43,6.36,3.64,7.86,4.15,2.14.72,4.13,1.08,5.9,1.08,1.17,0,2.23-.16,3.16-.47,2.43-.82,3.25-2.17,3.52-3.15.56-2.06-.81-3.74-1.26-4.29-2.33-2.85-9.08-8.22-11.87-10.39l-.09-.07c-3.05-2.39-6.1-4.59-9.07-6.52-.95-.62-2.72-1.78-4.67-1.78h0Z"/><circle class="uuid-32e96e30-aeef-4cb9-b95a-44a584a6a67d" cx="1205.52" cy="272.17" r="3.56"/><path class="uuid-6459acd1-764c-486c-b4d8-d5d12fd41b9d" d="m1188.06,358.23l1.58,2.11c2.08-.45,5.82-1.54,9.6-4.41,3.59-2.73,5.6-5.83,6.62-7.67l-1.71-2.29c-2.2.65-5.63,1.94-9.16,4.63-3.55,2.7-5.72,5.68-6.92,7.63Z"/><path class="uuid-d5caa2e0-9b9a-48d9-9792-74963c8e6bf0" d="m1169.07,331.27c1.71-1.76,3.86-3.72,6.48-5.65,2.86-2.1,5.58-3.66,7.93-4.81l19.83,26.61c-.83,1.51-2.4,3.89-5.12,6.01-3.51,2.73-7.08,3.58-8.89,3.88-6.74-8.68-13.49-17.36-20.23-26.04Z"/><path class="uuid-6459acd1-764c-486c-b4d8-d5d12fd41b9d" d="m1167.53,331.05c.51.07,1.03.15,1.54.22,1.81-1.87,4.13-3.98,7.01-6.04,2.66-1.9,5.19-3.34,7.4-4.42.03-.57.06-1.14.09-1.71l-1.18-1.59c-5.4,4.03-10.81,8.05-16.21,12.08.45.48.91.97,1.36,1.45Z"/></g></svg>